<?xml version="1.0" encoding="us-ascii" standalone="no"?><svg xmlns="http://www.w3.org/2000/svg" xmlns:xlink="http://www.w3.org/1999/xlink" contentStyleType="text/css" height="278px" preserveAspectRatio="none" style="width:598px;height:278px;background:#FFFFFF;" version="1.1" viewBox="0 0 598 278" width="598px" zoomAndPan="magnify"><defs/><g><!--cluster Edges--><g id="cluster_Edges"><path d="M8.5,6 L57.5,6 A3.75,3.75 0 0 1 60,8.5 L67,28.2969 L588.5,28.2969 A2.5,2.5 0 0 1 591,30.7969 L591,268.5 A2.5,2.5 0 0 1 588.5,271 L8.5,271 A2.5,2.5 0 0 1 6,268.5 L6,8.5 A2.5,2.5 0 0 1 8.5,6 " fill="none" style="stroke:#000000;stroke-width:1.5;"/><line style="stroke:#000000;stroke-width:1.5;" x1="6" x2="67" y1="28.2969" y2="28.2969"/><text fill="#000000" font-family="sans-serif" font-size="14" font-weight="bold" lengthAdjust="spacing" textLength="48" x="10" y="20.9951">Edges</text></g><!--class DiInput--><g id="elem_DiInput"><rect codeLine="4" fill="#F1F1F1" height="48" id="DiInput" rx="2.5" ry="2.5" style="stroke:#181818;stroke-width:0.5;" width="81" x="53.5" y="207"/><ellipse cx="68.5" cy="223" fill="#ADD1B2" rx="11" ry="11" style="stroke:#181818;stroke-width:1.0;"/><path d="M71.4688,228.6406 Q70.8906,228.9375 70.25,229.0781 Q69.6094,229.2344 68.9063,229.2344 Q66.4063,229.2344 65.0781,227.5938 Q63.7656,225.9375 63.7656,222.8125 Q63.7656,219.6875 65.0781,218.0313 Q66.4063,216.375 68.9063,216.375 Q69.6094,216.375 70.25,216.5313 Q70.9063,216.6875 71.4688,216.9844 L71.4688,219.7031 Q70.8438,219.125 70.25,218.8594 Q69.6563,218.5781 69.0313,218.5781 Q67.6875,218.5781 67,219.6563 Q66.3125,220.7188 66.3125,222.8125 Q66.3125,224.9063 67,225.9844 Q67.6875,227.0469 69.0313,227.0469 Q69.6563,227.0469 70.25,226.7813 Q70.8438,226.5 71.4688,225.9219 L71.4688,228.6406 Z " fill="#000000"/><text fill="#000000" font-family="sans-serif" font-size="14" lengthAdjust="spacing" textLength="49" x="82.5" y="227.8467">DiInput</text><line style="stroke:#181818;stroke-width:0.5;" x1="54.5" x2="133.5" y1="239" y2="239"/><line style="stroke:#181818;stroke-width:0.5;" x1="54.5" x2="133.5" y1="247" y2="247"/></g><!--class DiOutput--><g id="elem_DiOutput"><rect codeLine="5" fill="#F1F1F1" height="48" id="DiOutput" rx="2.5" ry="2.5" style="stroke:#181818;stroke-width:0.5;" width="94" x="47" y="124"/><ellipse cx="62" cy="140" fill="#ADD1B2" rx="11" ry="11" style="stroke:#181818;stroke-width:1.0;"/><path d="M64.9688,145.6406 Q64.3906,145.9375 63.75,146.0781 Q63.1094,146.2344 62.4063,146.2344 Q59.9063,146.2344 58.5781,144.5938 Q57.2656,142.9375 57.2656,139.8125 Q57.2656,136.6875 58.5781,135.0313 Q59.9063,133.375 62.4063,133.375 Q63.1094,133.375 63.75,133.5313 Q64.4063,133.6875 64.9688,133.9844 L64.9688,136.7031 Q64.3438,136.125 63.75,135.8594 Q63.1563,135.5781 62.5313,135.5781 Q61.1875,135.5781 60.5,136.6563 Q59.8125,137.7188 59.8125,139.8125 Q59.8125,141.9063 60.5,142.9844 Q61.1875,144.0469 62.5313,144.0469 Q63.1563,144.0469 63.75,143.7813 Q64.3438,143.5 64.9688,142.9219 L64.9688,145.6406 Z " fill="#000000"/><text fill="#000000" font-family="sans-serif" font-size="14" lengthAdjust="spacing" textLength="62" x="76" y="144.8467">DiOutput</text><line style="stroke:#181818;stroke-width:0.5;" x1="48" x2="140" y1="156" y2="156"/><line style="stroke:#181818;stroke-width:0.5;" x1="48" x2="140" y1="164" y2="164"/></g><!--class DirectedEdge--><g id="elem_DirectedEdge"><rect codeLine="6" fill="#F1F1F1" height="48" id="DirectedEdge" rx="2.5" ry="2.5" style="stroke:#181818;stroke-width:0.5;" width="127" x="226" y="124"/><ellipse cx="241" cy="140" fill="#ADD1B2" rx="11" ry="11" style="stroke:#181818;stroke-width:1.0;"/><path d="M243.9688,145.6406 Q243.3906,145.9375 242.75,146.0781 Q242.1094,146.2344 241.4063,146.2344 Q238.9063,146.2344 237.5781,144.5938 Q236.2656,142.9375 236.2656,139.8125 Q236.2656,136.6875 237.5781,135.0313 Q238.9063,133.375 241.4063,133.375 Q242.1094,133.375 242.75,133.5313 Q243.4063,133.6875 243.9688,133.9844 L243.9688,136.7031 Q243.3438,136.125 242.75,135.8594 Q242.1563,135.5781 241.5313,135.5781 Q240.1875,135.5781 239.5,136.6563 Q238.8125,137.7188 238.8125,139.8125 Q238.8125,141.9063 239.5,142.9844 Q240.1875,144.0469 241.5313,144.0469 Q242.1563,144.0469 242.75,143.7813 Q243.3438,143.5 243.9688,142.9219 L243.9688,145.6406 Z " fill="#000000"/><text fill="#000000" font-family="sans-serif" font-size="14" lengthAdjust="spacing" textLength="95" x="255" y="144.8467">DirectedEdge</text><line style="stroke:#181818;stroke-width:0.5;" x1="227" x2="352" y1="156" y2="156"/><line style="stroke:#181818;stroke-width:0.5;" x1="227" x2="352" y1="164" y2="164"/></g><!--class InputMultiDiEdge--><g id="elem_InputMultiDiEdge"><rect codeLine="7" fill="#F1F1F1" height="48" id="InputMultiDiEdge" rx="2.5" ry="2.5" style="stroke:#181818;stroke-width:0.5;" width="149" x="419.5" y="207"/><ellipse cx="434.5" cy="223" fill="#ADD1B2" rx="11" ry="11" style="stroke:#181818;stroke-width:1.0;"/><path d="M437.4688,228.6406 Q436.8906,228.9375 436.25,229.0781 Q435.6094,229.2344 434.9063,229.2344 Q432.4063,229.2344 431.0781,227.5938 Q429.7656,225.9375 429.7656,222.8125 Q429.7656,219.6875 431.0781,218.0313 Q432.4063,216.375 434.9063,216.375 Q435.6094,216.375 436.25,216.5313 Q436.9063,216.6875 437.4688,216.9844 L437.4688,219.7031 Q436.8438,219.125 436.25,218.8594 Q435.6563,218.5781 435.0313,218.5781 Q433.6875,218.5781 433,219.6563 Q432.3125,220.7188 432.3125,222.8125 Q432.3125,224.9063 433,225.9844 Q433.6875,227.0469 435.0313,227.0469 Q435.6563,227.0469 436.25,226.7813 Q436.8438,226.5 437.4688,225.9219 L437.4688,228.6406 Z " fill="#000000"/><text fill="#000000" font-family="sans-serif" font-size="14" lengthAdjust="spacing" textLength="117" x="448.5" y="227.8467">InputMultiDiEdge</text><line style="stroke:#181818;stroke-width:0.5;" x1="420.5" x2="567.5" y1="239" y2="239"/><line style="stroke:#181818;stroke-width:0.5;" x1="420.5" x2="567.5" y1="247" y2="247"/></g><!--class MultiDiEdge--><g id="elem_MultiDiEdge"><rect codeLine="8" fill="#F1F1F1" height="48" id="MultiDiEdge" rx="2.5" ry="2.5" style="stroke:#181818;stroke-width:0.5;" width="114" x="437" y="124"/><ellipse cx="452" cy="140" fill="#ADD1B2" rx="11" ry="11" style="stroke:#181818;stroke-width:1.0;"/><path d="M454.9688,145.6406 Q454.3906,145.9375 453.75,146.0781 Q453.1094,146.2344 452.4063,146.2344 Q449.9063,146.2344 448.5781,144.5938 Q447.2656,142.9375 447.2656,139.8125 Q447.2656,136.6875 448.5781,135.0313 Q449.9063,133.375 452.4063,133.375 Q453.1094,133.375 453.75,133.5313 Q454.4063,133.6875 454.9688,133.9844 L454.9688,136.7031 Q454.3438,136.125 453.75,135.8594 Q453.1563,135.5781 452.5313,135.5781 Q451.1875,135.5781 450.5,136.6563 Q449.8125,137.7188 449.8125,139.8125 Q449.8125,141.9063 450.5,142.9844 Q451.1875,144.0469 452.5313,144.0469 Q453.1563,144.0469 453.75,143.7813 Q454.3438,143.5 454.9688,142.9219 L454.9688,145.6406 Z " fill="#000000"/><text fill="#000000" font-family="sans-serif" font-size="14" lengthAdjust="spacing" textLength="82" x="466" y="144.8467">MultiDiEdge</text><line style="stroke:#181818;stroke-width:0.5;" x1="438" x2="550" y1="156" y2="156"/><line style="stroke:#181818;stroke-width:0.5;" x1="438" x2="550" y1="164" y2="164"/></g><!--class MultiDiInput--><g id="elem_MultiDiInput"><rect codeLine="9" fill="#F1F1F1" height="48" id="MultiDiInput" rx="2.5" ry="2.5" style="stroke:#181818;stroke-width:0.5;" width="113" x="233" y="207"/><ellipse cx="248" cy="223" fill="#ADD1B2" rx="11" ry="11" style="stroke:#181818;stroke-width:1.0;"/><path d="M250.9688,228.6406 Q250.3906,228.9375 249.75,229.0781 Q249.1094,229.2344 248.4063,229.2344 Q245.9063,229.2344 244.5781,227.5938 Q243.2656,225.9375 243.2656,222.8125 Q243.2656,219.6875 244.5781,218.0313 Q245.9063,216.375 248.4063,216.375 Q249.1094,216.375 249.75,216.5313 Q250.4063,216.6875 250.9688,216.9844 L250.9688,219.7031 Q250.3438,219.125 249.75,218.8594 Q249.1563,218.5781 248.5313,218.5781 Q247.1875,218.5781 246.5,219.6563 Q245.8125,220.7188 245.8125,222.8125 Q245.8125,224.9063 246.5,225.9844 Q247.1875,227.0469 248.5313,227.0469 Q249.1563,227.0469 249.75,226.7813 Q250.3438,226.5 250.9688,225.9219 L250.9688,228.6406 Z " fill="#000000"/><text fill="#000000" font-family="sans-serif" font-size="14" lengthAdjust="spacing" textLength="81" x="262" y="227.8467">MultiDiInput</text><line style="stroke:#181818;stroke-width:0.5;" x1="234" x2="345" y1="239" y2="239"/><line style="stroke:#181818;stroke-width:0.5;" x1="234" x2="345" y1="247" y2="247"/></g><!--class MultiDiOutput--><g id="elem_MultiDiOutput"><rect codeLine="10" fill="#F1F1F1" height="48" id="MultiDiOutput" rx="2.5" ry="2.5" style="stroke:#181818;stroke-width:0.5;" width="126" x="226.5" y="41"/><ellipse cx="241.5" cy="57" fill="#ADD1B2" rx="11" ry="11" style="stroke:#181818;stroke-width:1.0;"/><path d="M244.4688,62.6406 Q243.8906,62.9375 243.25,63.0781 Q242.6094,63.2344 241.9063,63.2344 Q239.4063,63.2344 238.0781,61.5938 Q236.7656,59.9375 236.7656,56.8125 Q236.7656,53.6875 238.0781,52.0313 Q239.4063,50.375 241.9063,50.375 Q242.6094,50.375 243.25,50.5313 Q243.9063,50.6875 244.4688,50.9844 L244.4688,53.7031 Q243.8438,53.125 243.25,52.8594 Q242.6563,52.5781 242.0313,52.5781 Q240.6875,52.5781 240,53.6563 Q239.3125,54.7188 239.3125,56.8125 Q239.3125,58.9063 240,59.9844 Q240.6875,61.0469 242.0313,61.0469 Q242.6563,61.0469 243.25,60.7813 Q243.8438,60.5 244.4688,59.9219 L244.4688,62.6406 Z " fill="#000000"/><text fill="#000000" font-family="sans-serif" font-size="14" lengthAdjust="spacing" textLength="94" x="255.5" y="61.8467">MultiDiOutput</text><line style="stroke:#181818;stroke-width:0.5;" x1="227.5" x2="351.5" y1="73" y2="73"/><line style="stroke:#181818;stroke-width:0.5;" x1="227.5" x2="351.5" y1="81" y2="81"/></g><!--class OutputMultiDiEdge--><g id="elem_OutputMultiDiEdge"><rect codeLine="11" fill="#F1F1F1" height="48" id="OutputMultiDiEdge" rx="2.5" ry="2.5" style="stroke:#181818;stroke-width:0.5;" width="162" x="413" y="41"/><ellipse cx="428" cy="57" fill="#ADD1B2" rx="11" ry="11" style="stroke:#181818;stroke-width:1.0;"/><path d="M430.9688,62.6406 Q430.3906,62.9375 429.75,63.0781 Q429.1094,63.2344 428.4063,63.2344 Q425.9063,63.2344 424.5781,61.5938 Q423.2656,59.9375 423.2656,56.8125 Q423.2656,53.6875 424.5781,52.0313 Q425.9063,50.375 428.4063,50.375 Q429.1094,50.375 429.75,50.5313 Q430.4063,50.6875 430.9688,50.9844 L430.9688,53.7031 Q430.3438,53.125 429.75,52.8594 Q429.1563,52.5781 428.5313,52.5781 Q427.1875,52.5781 426.5,53.6563 Q425.8125,54.7188 425.8125,56.8125 Q425.8125,58.9063 426.5,59.9844 Q427.1875,61.0469 428.5313,61.0469 Q429.1563,61.0469 429.75,60.7813 Q430.3438,60.5 430.9688,59.9219 L430.9688,62.6406 Z " fill="#000000"/><text fill="#000000" font-family="sans-serif" font-size="14" lengthAdjust="spacing" textLength="130" x="442" y="61.8467">OutputMultiDiEdge</text><line style="stroke:#181818;stroke-width:0.5;" x1="414" x2="574" y1="73" y2="73"/><line style="stroke:#181818;stroke-width:0.5;" x1="414" x2="574" y1="81" y2="81"/></g><!--class UndirectedEdge--><g id="elem_UndirectedEdge"><rect codeLine="12" fill="#F1F1F1" height="48" id="UndirectedEdge" rx="2.5" ry="2.5" style="stroke:#181818;stroke-width:0.5;" width="144" x="22" y="41"/><ellipse cx="37" cy="57" fill="#ADD1B2" rx="11" ry="11" style="stroke:#181818;stroke-width:1.0;"/><path d="M39.9688,62.6406 Q39.3906,62.9375 38.75,63.0781 Q38.1094,63.2344 37.4063,63.2344 Q34.9063,63.2344 33.5781,61.5938 Q32.2656,59.9375 32.2656,56.8125 Q32.2656,53.6875 33.5781,52.0313 Q34.9063,50.375 37.4063,50.375 Q38.1094,50.375 38.75,50.5313 Q39.4063,50.6875 39.9688,50.9844 L39.9688,53.7031 Q39.3438,53.125 38.75,52.8594 Q38.1563,52.5781 37.5313,52.5781 Q36.1875,52.5781 35.5,53.6563 Q34.8125,54.7188 34.8125,56.8125 Q34.8125,58.9063 35.5,59.9844 Q36.1875,61.0469 37.5313,61.0469 Q38.1563,61.0469 38.75,60.7813 Q39.3438,60.5 39.9688,59.9219 L39.9688,62.6406 Z " fill="#000000"/><text fill="#000000" font-family="sans-serif" font-size="14" lengthAdjust="spacing" textLength="112" x="51" y="61.8467">UndirectedEdge</text><line style="stroke:#181818;stroke-width:0.5;" x1="23" x2="165" y1="73" y2="73"/><line style="stroke:#181818;stroke-width:0.5;" x1="23" x2="165" y1="81" y2="81"/></g><!--reverse link DiInput to DirectedEdge--><g id="link_DiInput_DirectedEdge"><path codeLine="15" d="M151.1628,206.9052 C179.1428,194.9052 200.5,185.75 231.68,172.37 " fill="none" id="DiInput-backto-DirectedEdge" style="stroke:#181818;stroke-width:1.0;"/><polygon fill="none" points="134.62,214,153.5277,212.4194,148.7978,201.3909,134.62,214" style="stroke:#181818;stroke-width:1.0;"/></g><!--reverse link DiInput to MultiDiInput--><g id="link_DiInput_MultiDiInput"><path codeLine="16" d="M152.62,231 C180.93,231 201.4,231 232.79,231 " fill="none" id="DiInput-backto-MultiDiInput" style="stroke:#181818;stroke-width:1.0;"/><polygon fill="none" points="134.62,231,152.62,237,152.62,225,134.62,231" style="stroke:#181818;stroke-width:1.0;"/></g><!--reverse link DiOutput to DirectedEdge--><g id="link_DiOutput_DirectedEdge"><path codeLine="17" d="M159.35,148 C184.62,148 198.25,148 225.7,148 " fill="none" id="DiOutput-backto-DirectedEdge" style="stroke:#181818;stroke-width:1.0;"/><polygon fill="none" points="141.35,148,159.35,154,159.35,142,141.35,148" style="stroke:#181818;stroke-width:1.0;"/></g><!--reverse link DiOutput to MultiDiOutput--><g id="link_DiOutput_MultiDiOutput"><path codeLine="18" d="M157.8918,121.0228 C184.9518,109.4128 202.76,101.78 231.47,89.46 " fill="none" id="DiOutput-backto-MultiDiOutput" style="stroke:#181818;stroke-width:1.0;"/><polygon fill="none" points="141.35,128.12,160.2575,126.5367,155.526,115.5089,141.35,128.12" style="stroke:#181818;stroke-width:1.0;"/></g><!--reverse link MultiDiInput to InputMultiDiEdge--><g id="link_MultiDiInput_InputMultiDiEdge"><path codeLine="19" d="M364.37,231 C386.85,231 395.09,231 419.1,231 " fill="none" id="MultiDiInput-backto-InputMultiDiEdge" style="stroke:#181818;stroke-width:1.0;"/><polygon fill="none" points="346.37,231,364.37,237,364.37,225,346.37,231" style="stroke:#181818;stroke-width:1.0;"/></g><!--reverse link MultiDiInput to MultiDiEdge--><g id="link_MultiDiInput_MultiDiEdge"><path codeLine="20" d="M363.0247,201.2721 C391.1247,189.7521 408.44,182.66 436.61,171.11 " fill="none" id="MultiDiInput-backto-MultiDiEdge" style="stroke:#181818;stroke-width:1.0;"/><polygon fill="none" points="346.37,208.1,365.3007,206.8237,360.7488,195.7206,346.37,208.1" style="stroke:#181818;stroke-width:1.0;"/></g><!--reverse link MultiDiOutput to MultiDiEdge--><g id="link_MultiDiOutput_MultiDiEdge"><path codeLine="21" d="M366.8152,96.2768 C394.1152,107.4668 409.64,113.83 436.54,124.86 " fill="none" id="MultiDiOutput-backto-MultiDiEdge" style="stroke:#181818;stroke-width:1.0;"/><polygon fill="none" points="350.16,89.45,364.5396,101.8285,369.0908,90.7251,350.16,89.45" style="stroke:#181818;stroke-width:1.0;"/></g><!--reverse link MultiDiOutput to OutputMultiDiEdge--><g id="link_MultiDiOutput_OutputMultiDiEdge"><path codeLine="22" d="M370.91,65 C389.73,65 392.67,65 412.5,65 " fill="none" id="MultiDiOutput-backto-OutputMultiDiEdge" style="stroke:#181818;stroke-width:1.0;"/><polygon fill="none" points="352.91,65,370.91,71,370.91,59,352.91,65" style="stroke:#181818;stroke-width:1.0;"/></g><!--SRC=[TL0x3i8m39tnANo1te2n30o8YGD4YGaMKLerpWJS7PMs8bRIyRsNzt42tGLbm8dzGz3nH5PuY02ZiK_Z2K_EKy8Nmi46anBsV8vZbZ-yPb5uJY0tspRkPxZa8DnpoUzJgcBbTC-26Wctw8e921-0DG-FxwxJ0vMYkhU-fgcKzBeoOz6hu-id3RNHi2TNF_45]--></g></svg>