<?xml version="1.0" encoding="us-ascii" standalone="no"?><svg xmlns="http://www.w3.org/2000/svg" xmlns:xlink="http://www.w3.org/1999/xlink" contentStyleType="text/css" height="1188px" preserveAspectRatio="none" style="width:1833px;height:1188px;background:#FFFFFF;" version="1.1" viewBox="0 0 1833 1188" width="1833px" zoomAndPan="magnify"><defs/><g><!--cluster Labelled--><g id="cluster_Labelled"><path d="M8.5,6 L75.5,6 A3.75,3.75 0 0 1 78,8.5 L85,28.2969 L1823.5,28.2969 A2.5,2.5 0 0 1 1826,30.7969 L1826,1178.5 A2.5,2.5 0 0 1 1823.5,1181 L8.5,1181 A2.5,2.5 0 0 1 6,1178.5 L6,8.5 A2.5,2.5 0 0 1 8.5,6 " fill="none" style="stroke:#000000;stroke-width:1.5;"/><line style="stroke:#000000;stroke-width:1.5;" x1="6" x2="85" y1="28.2969" y2="28.2969"/><text fill="#000000" font-family="sans-serif" font-size="14" font-weight="bold" lengthAdjust="spacing" textLength="66" x="10" y="20.9951">Labelled</text></g><!--cluster NodeLabelled--><g id="cluster_NodeLabelled"><path d="M32.5,809 L140.5,809 A3.75,3.75 0 0 1 143,811.5 L150,831.2969 L1401,831.2969 A2.5,2.5 0 0 1 1403.5,833.7969 L1403.5,1154.5 A2.5,2.5 0 0 1 1401,1157 L32.5,1157 A2.5,2.5 0 0 1 30,1154.5 L30,811.5 A2.5,2.5 0 0 1 32.5,809 " fill="none" style="stroke:#000000;stroke-width:1.5;"/><line style="stroke:#000000;stroke-width:1.5;" x1="30" x2="150" y1="831.2969" y2="831.2969"/><text fill="#000000" font-family="sans-serif" font-size="14" font-weight="bold" lengthAdjust="spacing" textLength="107" x="34" y="823.9951">NodeLabelled</text></g><!--cluster OutputLabelled--><g id="cluster_OutputLabelled"><path d="M355,271 L476,271 A3.75,3.75 0 0 1 478.5,273.5 L485.5,293.2969 L1799.5,293.2969 A2.5,2.5 0 0 1 1802,295.7969 L1802,782.5 A2.5,2.5 0 0 1 1799.5,785 L355,785 A2.5,2.5 0 0 1 352.5,782.5 L352.5,273.5 A2.5,2.5 0 0 1 355,271 " fill="none" style="stroke:#000000;stroke-width:1.5;"/><line style="stroke:#000000;stroke-width:1.5;" x1="352.5" x2="485.5" y1="293.2969" y2="293.2969"/><text fill="#000000" font-family="sans-serif" font-size="14" font-weight="bold" lengthAdjust="spacing" textLength="120" x="356.5" y="285.9951">OutputLabelled</text></g><!--class ILabelledMultiDiGraph--><g id="elem_ILabelledMultiDiGraph"><rect codeLine="4" fill="#F1F1F1" height="48" id="ILabelledMultiDiGraph" rx="2.5" ry="2.5" style="stroke:#181818;stroke-width:0.5;" width="180" x="761" y="124"/><ellipse cx="776" cy="140" fill="#A9DCDF" rx="11" ry="11" style="stroke:#181818;stroke-width:1.0;"/><path d="M776.1094,135.3438 L774.9531,140.4219 L777.2813,140.4219 L776.1094,135.3438 Z M774.625,133.1094 L777.6094,133.1094 L780.9688,145.5 L778.5156,145.5 L777.75,142.4375 L774.4688,142.4375 L773.7188,145.5 L771.2813,145.5 L774.625,133.1094 Z " fill="#000000"/><text fill="#000000" font-family="sans-serif" font-size="14" font-style="italic" lengthAdjust="spacing" textLength="148" x="790" y="144.8467">ILabelledMultiDiGraph</text><line style="stroke:#181818;stroke-width:0.5;" x1="762" x2="940" y1="156" y2="156"/><line style="stroke:#181818;stroke-width:0.5;" x1="762" x2="940" y1="164" y2="164"/></g><!--class ILabelledMultiDiGraphView--><g id="elem_ILabelledMultiDiGraphView"><rect codeLine="5" fill="#F1F1F1" height="48" id="ILabelledMultiDiGraphView" rx="2.5" ry="2.5" style="stroke:#181818;stroke-width:0.5;" width="212" x="392.5" y="166"/><ellipse cx="407.5" cy="182" fill="#A9DCDF" rx="11" ry="11" style="stroke:#181818;stroke-width:1.0;"/><path d="M407.6094,177.3438 L406.4531,182.4219 L408.7813,182.4219 L407.6094,177.3438 Z M406.125,175.1094 L409.1094,175.1094 L412.4688,187.5 L410.0156,187.5 L409.25,184.4375 L405.9688,184.4375 L405.2188,187.5 L402.7813,187.5 L406.125,175.1094 Z " fill="#000000"/><text fill="#000000" font-family="sans-serif" font-size="14" font-style="italic" lengthAdjust="spacing" textLength="180" x="421.5" y="186.8467">ILabelledMultiDiGraphView</text><line style="stroke:#181818;stroke-width:0.5;" x1="393.5" x2="603.5" y1="198" y2="198"/><line style="stroke:#181818;stroke-width:0.5;" x1="393.5" x2="603.5" y1="206" y2="206"/></g><!--class LabelledMultiDiGraph--><g id="elem_LabelledMultiDiGraph"><rect codeLine="6" fill="#F1F1F1" height="48" id="LabelledMultiDiGraph" rx="2.5" ry="2.5" style="stroke:#181818;stroke-width:0.5;" width="177" x="1136" y="166"/><ellipse cx="1151" cy="182" fill="#ADD1B2" rx="11" ry="11" style="stroke:#181818;stroke-width:1.0;"/><path d="M1153.9688,187.6406 Q1153.3906,187.9375 1152.75,188.0781 Q1152.1094,188.2344 1151.4063,188.2344 Q1148.9063,188.2344 1147.5781,186.5938 Q1146.2656,184.9375 1146.2656,181.8125 Q1146.2656,178.6875 1147.5781,177.0313 Q1148.9063,175.375 1151.4063,175.375 Q1152.1094,175.375 1152.75,175.5313 Q1153.4063,175.6875 1153.9688,175.9844 L1153.9688,178.7031 Q1153.3438,178.125 1152.75,177.8594 Q1152.1563,177.5781 1151.5313,177.5781 Q1150.1875,177.5781 1149.5,178.6563 Q1148.8125,179.7188 1148.8125,181.8125 Q1148.8125,183.9063 1149.5,184.9844 Q1150.1875,186.0469 1151.5313,186.0469 Q1152.1563,186.0469 1152.75,185.7813 Q1153.3438,185.5 1153.9688,184.9219 L1153.9688,187.6406 Z " fill="#000000"/><text fill="#000000" font-family="sans-serif" font-size="14" lengthAdjust="spacing" textLength="145" x="1165" y="186.8467">LabelledMultiDiGraph</text><line style="stroke:#181818;stroke-width:0.5;" x1="1137" x2="1312" y1="198" y2="198"/><line style="stroke:#181818;stroke-width:0.5;" x1="1137" x2="1312" y1="206" y2="206"/></g><!--class LabelledMultiDiGraphView--><g id="elem_LabelledMultiDiGraphView"><rect codeLine="7" fill="#F1F1F1" height="48" id="LabelledMultiDiGraphView" rx="2.5" ry="2.5" style="stroke:#181818;stroke-width:0.5;" width="209" x="746.5" y="207"/><ellipse cx="761.5" cy="223" fill="#ADD1B2" rx="11" ry="11" style="stroke:#181818;stroke-width:1.0;"/><path d="M764.4688,228.6406 Q763.8906,228.9375 763.25,229.0781 Q762.6094,229.2344 761.9063,229.2344 Q759.4063,229.2344 758.0781,227.5938 Q756.7656,225.9375 756.7656,222.8125 Q756.7656,219.6875 758.0781,218.0313 Q759.4063,216.375 761.9063,216.375 Q762.6094,216.375 763.25,216.5313 Q763.9063,216.6875 764.4688,216.9844 L764.4688,219.7031 Q763.8438,219.125 763.25,218.8594 Q762.6563,218.5781 762.0313,218.5781 Q760.6875,218.5781 760,219.6563 Q759.3125,220.7188 759.3125,222.8125 Q759.3125,224.9063 760,225.9844 Q760.6875,227.0469 762.0313,227.0469 Q762.6563,227.0469 763.25,226.7813 Q763.8438,226.5 764.4688,225.9219 L764.4688,228.6406 Z " fill="#000000"/><text fill="#000000" font-family="sans-serif" font-size="14" lengthAdjust="spacing" textLength="177" x="775.5" y="227.8467">LabelledMultiDiGraphView</text><line style="stroke:#181818;stroke-width:0.5;" x1="747.5" x2="954.5" y1="239" y2="239"/><line style="stroke:#181818;stroke-width:0.5;" x1="747.5" x2="954.5" y1="247" y2="247"/></g><!--class LabelledMultiDiSubgraphView--><g id="elem_LabelledMultiDiSubgraphView"><rect codeLine="8" fill="#F1F1F1" height="48" id="LabelledMultiDiSubgraphView" rx="2.5" ry="2.5" style="stroke:#181818;stroke-width:0.5;" width="234" x="734" y="41"/><ellipse cx="749" cy="57" fill="#ADD1B2" rx="11" ry="11" style="stroke:#181818;stroke-width:1.0;"/><path d="M751.9688,62.6406 Q751.3906,62.9375 750.75,63.0781 Q750.1094,63.2344 749.4063,63.2344 Q746.9063,63.2344 745.5781,61.5938 Q744.2656,59.9375 744.2656,56.8125 Q744.2656,53.6875 745.5781,52.0313 Q746.9063,50.375 749.4063,50.375 Q750.1094,50.375 750.75,50.5313 Q751.4063,50.6875 751.9688,50.9844 L751.9688,53.7031 Q751.3438,53.125 750.75,52.8594 Q750.1563,52.5781 749.5313,52.5781 Q748.1875,52.5781 747.5,53.6563 Q746.8125,54.7188 746.8125,56.8125 Q746.8125,58.9063 747.5,59.9844 Q748.1875,61.0469 749.5313,61.0469 Q750.1563,61.0469 750.75,60.7813 Q751.3438,60.5 751.9688,59.9219 L751.9688,62.6406 Z " fill="#000000"/><text fill="#000000" font-family="sans-serif" font-size="14" lengthAdjust="spacing" textLength="202" x="763" y="61.8467">LabelledMultiDiSubgraphView</text><line style="stroke:#181818;stroke-width:0.5;" x1="735" x2="967" y1="73" y2="73"/><line style="stroke:#181818;stroke-width:0.5;" x1="735" x2="967" y1="81" y2="81"/></g><!--class INodeLabelledMultiDiGraph--><g id="elem_INodeLabelledMultiDiGraph"><rect codeLine="12" fill="#F1F1F1" height="48" id="INodeLabelledMultiDiGraph" rx="2.5" ry="2.5" style="stroke:#181818;stroke-width:0.5;" width="217" x="390" y="927"/><ellipse cx="405" cy="943" fill="#A9DCDF" rx="11" ry="11" style="stroke:#181818;stroke-width:1.0;"/><path d="M405.1094,938.3438 L403.9531,943.4219 L406.2813,943.4219 L405.1094,938.3438 Z M403.625,936.1094 L406.6094,936.1094 L409.9688,948.5 L407.5156,948.5 L406.75,945.4375 L403.4688,945.4375 L402.7188,948.5 L400.2813,948.5 L403.625,936.1094 Z " fill="#000000"/><text fill="#000000" font-family="sans-serif" font-size="14" font-style="italic" lengthAdjust="spacing" textLength="185" x="419" y="947.8467">INodeLabelledMultiDiGraph</text><line style="stroke:#181818;stroke-width:0.5;" x1="391" x2="606" y1="959" y2="959"/><line style="stroke:#181818;stroke-width:0.5;" x1="391" x2="606" y1="967" y2="967"/></g><!--class INodeLabelledMultiDiGraphView--><g id="elem_INodeLabelledMultiDiGraphView"><rect codeLine="13" fill="#F1F1F1" height="48" id="INodeLabelledMultiDiGraphView" rx="2.5" ry="2.5" style="stroke:#181818;stroke-width:0.5;" width="249" x="46" y="886"/><ellipse cx="61" cy="902" fill="#A9DCDF" rx="11" ry="11" style="stroke:#181818;stroke-width:1.0;"/><path d="M61.1094,897.3438 L59.9531,902.4219 L62.2813,902.4219 L61.1094,897.3438 Z M59.625,895.1094 L62.6094,895.1094 L65.9688,907.5 L63.5156,907.5 L62.75,904.4375 L59.4688,904.4375 L58.7188,907.5 L56.2813,907.5 L59.625,895.1094 Z " fill="#000000"/><text fill="#000000" font-family="sans-serif" font-size="14" font-style="italic" lengthAdjust="spacing" textLength="217" x="75" y="906.8467">INodeLabelledMultiDiGraphView</text><line style="stroke:#181818;stroke-width:0.5;" x1="47" x2="294" y1="918" y2="918"/><line style="stroke:#181818;stroke-width:0.5;" x1="47" x2="294" y1="926" y2="926"/></g><!--class INodeLabelledOpenMultiDiGraph--><g id="elem_INodeLabelledOpenMultiDiGraph"><rect codeLine="14" fill="#F1F1F1" height="48" id="INodeLabelledOpenMultiDiGraph" rx="2.5" ry="2.5" style="stroke:#181818;stroke-width:0.5;" width="255" x="723.5" y="1093"/><ellipse cx="738.5" cy="1109" fill="#A9DCDF" rx="11" ry="11" style="stroke:#181818;stroke-width:1.0;"/><path d="M738.6094,1104.3438 L737.4531,1109.4219 L739.7813,1109.4219 L738.6094,1104.3438 Z M737.125,1102.1094 L740.1094,1102.1094 L743.4688,1114.5 L741.0156,1114.5 L740.25,1111.4375 L736.9688,1111.4375 L736.2188,1114.5 L733.7813,1114.5 L737.125,1102.1094 Z " fill="#000000"/><text fill="#000000" font-family="sans-serif" font-size="14" font-style="italic" lengthAdjust="spacing" textLength="223" x="752.5" y="1113.8467">INodeLabelledOpenMultiDiGraph</text><line style="stroke:#181818;stroke-width:0.5;" x1="724.5" x2="977.5" y1="1125" y2="1125"/><line style="stroke:#181818;stroke-width:0.5;" x1="724.5" x2="977.5" y1="1133" y2="1133"/></g><!--class INodeLabelledOpenMultiDiGraphView--><g id="elem_INodeLabelledOpenMultiDiGraphView"><rect codeLine="15" fill="#F1F1F1" height="48" id="INodeLabelledOpenMultiDiGraphView" rx="2.5" ry="2.5" style="stroke:#181818;stroke-width:0.5;" width="287" x="355" y="1093"/><ellipse cx="370" cy="1109" fill="#ADD1B2" rx="11" ry="11" style="stroke:#181818;stroke-width:1.0;"/><path d="M372.9688,1114.6406 Q372.3906,1114.9375 371.75,1115.0781 Q371.1094,1115.2344 370.4063,1115.2344 Q367.9063,1115.2344 366.5781,1113.5938 Q365.2656,1111.9375 365.2656,1108.8125 Q365.2656,1105.6875 366.5781,1104.0313 Q367.9063,1102.375 370.4063,1102.375 Q371.1094,1102.375 371.75,1102.5313 Q372.4063,1102.6875 372.9688,1102.9844 L372.9688,1105.7031 Q372.3438,1105.125 371.75,1104.8594 Q371.1563,1104.5781 370.5313,1104.5781 Q369.1875,1104.5781 368.5,1105.6563 Q367.8125,1106.7188 367.8125,1108.8125 Q367.8125,1110.9063 368.5,1111.9844 Q369.1875,1113.0469 370.5313,1113.0469 Q371.1563,1113.0469 371.75,1112.7813 Q372.3438,1112.5 372.9688,1111.9219 L372.9688,1114.6406 Z " fill="#000000"/><text fill="#000000" font-family="sans-serif" font-size="14" lengthAdjust="spacing" textLength="255" x="384" y="1113.8467">INodeLabelledOpenMultiDiGraphView</text><line style="stroke:#181818;stroke-width:0.5;" x1="356" x2="641" y1="1125" y2="1125"/><line style="stroke:#181818;stroke-width:0.5;" x1="356" x2="641" y1="1133" y2="1133"/></g><!--class NodeLabelledMultiDiGraph--><g id="elem_NodeLabelledMultiDiGraph"><rect codeLine="16" fill="#F1F1F1" height="48" id="NodeLabelledMultiDiGraph" rx="2.5" ry="2.5" style="stroke:#181818;stroke-width:0.5;" width="214" x="744" y="927"/><ellipse cx="759" cy="943" fill="#ADD1B2" rx="11" ry="11" style="stroke:#181818;stroke-width:1.0;"/><path d="M761.9688,948.6406 Q761.3906,948.9375 760.75,949.0781 Q760.1094,949.2344 759.4063,949.2344 Q756.9063,949.2344 755.5781,947.5938 Q754.2656,945.9375 754.2656,942.8125 Q754.2656,939.6875 755.5781,938.0313 Q756.9063,936.375 759.4063,936.375 Q760.1094,936.375 760.75,936.5313 Q761.4063,936.6875 761.9688,936.9844 L761.9688,939.7031 Q761.3438,939.125 760.75,938.8594 Q760.1563,938.5781 759.5313,938.5781 Q758.1875,938.5781 757.5,939.6563 Q756.8125,940.7188 756.8125,942.8125 Q756.8125,944.9063 757.5,945.9844 Q758.1875,947.0469 759.5313,947.0469 Q760.1563,947.0469 760.75,946.7813 Q761.3438,946.5 761.9688,945.9219 L761.9688,948.6406 Z " fill="#000000"/><text fill="#000000" font-family="sans-serif" font-size="14" lengthAdjust="spacing" textLength="182" x="773" y="947.8467">NodeLabelledMultiDiGraph</text><line style="stroke:#181818;stroke-width:0.5;" x1="745" x2="957" y1="959" y2="959"/><line style="stroke:#181818;stroke-width:0.5;" x1="745" x2="957" y1="967" y2="967"/></g><!--class NodeLabelledMultiDiGraphView--><g id="elem_NodeLabelledMultiDiGraphView"><rect codeLine="17" fill="#F1F1F1" height="48" id="NodeLabelledMultiDiGraphView" rx="2.5" ry="2.5" style="stroke:#181818;stroke-width:0.5;" width="246" x="375.5" y="1010"/><ellipse cx="390.5" cy="1026" fill="#ADD1B2" rx="11" ry="11" style="stroke:#181818;stroke-width:1.0;"/><path d="M393.4688,1031.6406 Q392.8906,1031.9375 392.25,1032.0781 Q391.6094,1032.2344 390.9063,1032.2344 Q388.4063,1032.2344 387.0781,1030.5938 Q385.7656,1028.9375 385.7656,1025.8125 Q385.7656,1022.6875 387.0781,1021.0313 Q388.4063,1019.375 390.9063,1019.375 Q391.6094,1019.375 392.25,1019.5313 Q392.9063,1019.6875 393.4688,1019.9844 L393.4688,1022.7031 Q392.8438,1022.125 392.25,1021.8594 Q391.6563,1021.5781 391.0313,1021.5781 Q389.6875,1021.5781 389,1022.6563 Q388.3125,1023.7188 388.3125,1025.8125 Q388.3125,1027.9063 389,1028.9844 Q389.6875,1030.0469 391.0313,1030.0469 Q391.6563,1030.0469 392.25,1029.7813 Q392.8438,1029.5 393.4688,1028.9219 L393.4688,1031.6406 Z " fill="#000000"/><text fill="#000000" font-family="sans-serif" font-size="14" lengthAdjust="spacing" textLength="214" x="404.5" y="1030.8467">NodeLabelledMultiDiGraphView</text><line style="stroke:#181818;stroke-width:0.5;" x1="376.5" x2="620.5" y1="1042" y2="1042"/><line style="stroke:#181818;stroke-width:0.5;" x1="376.5" x2="620.5" y1="1050" y2="1050"/></g><!--class NodeLabelledMultiDiSubgraphView--><g id="elem_NodeLabelledMultiDiSubgraphView"><rect codeLine="18" fill="#F1F1F1" height="48" id="NodeLabelledMultiDiSubgraphView" rx="2.5" ry="2.5" style="stroke:#181818;stroke-width:0.5;" width="271" x="363" y="844"/><ellipse cx="378" cy="860" fill="#ADD1B2" rx="11" ry="11" style="stroke:#181818;stroke-width:1.0;"/><path d="M380.9688,865.6406 Q380.3906,865.9375 379.75,866.0781 Q379.1094,866.2344 378.4063,866.2344 Q375.9063,866.2344 374.5781,864.5938 Q373.2656,862.9375 373.2656,859.8125 Q373.2656,856.6875 374.5781,855.0313 Q375.9063,853.375 378.4063,853.375 Q379.1094,853.375 379.75,853.5313 Q380.4063,853.6875 380.9688,853.9844 L380.9688,856.7031 Q380.3438,856.125 379.75,855.8594 Q379.1563,855.5781 378.5313,855.5781 Q377.1875,855.5781 376.5,856.6563 Q375.8125,857.7188 375.8125,859.8125 Q375.8125,861.9063 376.5,862.9844 Q377.1875,864.0469 378.5313,864.0469 Q379.1563,864.0469 379.75,863.7813 Q380.3438,863.5 380.9688,862.9219 L380.9688,865.6406 Z " fill="#000000"/><text fill="#000000" font-family="sans-serif" font-size="14" lengthAdjust="spacing" textLength="239" x="392" y="864.8467">NodeLabelledMultiDiSubgraphView</text><line style="stroke:#181818;stroke-width:0.5;" x1="364" x2="633" y1="876" y2="876"/><line style="stroke:#181818;stroke-width:0.5;" x1="364" x2="633" y1="884" y2="884"/></g><!--class NodeLabelledOpenMultiDiGraph--><g id="elem_NodeLabelledOpenMultiDiGraph"><rect codeLine="19" fill="#F1F1F1" height="48" id="NodeLabelledOpenMultiDiGraph" rx="2.5" ry="2.5" style="stroke:#181818;stroke-width:0.5;" width="252" x="1098.5" y="1010"/><ellipse cx="1113.5" cy="1026" fill="#ADD1B2" rx="11" ry="11" style="stroke:#181818;stroke-width:1.0;"/><path d="M1116.4688,1031.6406 Q1115.8906,1031.9375 1115.25,1032.0781 Q1114.6094,1032.2344 1113.9063,1032.2344 Q1111.4063,1032.2344 1110.0781,1030.5938 Q1108.7656,1028.9375 1108.7656,1025.8125 Q1108.7656,1022.6875 1110.0781,1021.0313 Q1111.4063,1019.375 1113.9063,1019.375 Q1114.6094,1019.375 1115.25,1019.5313 Q1115.9063,1019.6875 1116.4688,1019.9844 L1116.4688,1022.7031 Q1115.8438,1022.125 1115.25,1021.8594 Q1114.6563,1021.5781 1114.0313,1021.5781 Q1112.6875,1021.5781 1112,1022.6563 Q1111.3125,1023.7188 1111.3125,1025.8125 Q1111.3125,1027.9063 1112,1028.9844 Q1112.6875,1030.0469 1114.0313,1030.0469 Q1114.6563,1030.0469 1115.25,1029.7813 Q1115.8438,1029.5 1116.4688,1028.9219 L1116.4688,1031.6406 Z " fill="#000000"/><text fill="#000000" font-family="sans-serif" font-size="14" lengthAdjust="spacing" textLength="220" x="1127.5" y="1030.8467">NodeLabelledOpenMultiDiGraph</text><line style="stroke:#181818;stroke-width:0.5;" x1="1099.5" x2="1349.5" y1="1042" y2="1042"/><line style="stroke:#181818;stroke-width:0.5;" x1="1099.5" x2="1349.5" y1="1050" y2="1050"/></g><!--class NodeLabelledOpenMultiDiGraphView--><g id="elem_NodeLabelledOpenMultiDiGraphView"><rect codeLine="20" fill="#F1F1F1" height="48" id="NodeLabelledOpenMultiDiGraphView" rx="2.5" ry="2.5" style="stroke:#181818;stroke-width:0.5;" width="284" x="709" y="1010"/><ellipse cx="724" cy="1026" fill="#ADD1B2" rx="11" ry="11" style="stroke:#181818;stroke-width:1.0;"/><path d="M726.9688,1031.6406 Q726.3906,1031.9375 725.75,1032.0781 Q725.1094,1032.2344 724.4063,1032.2344 Q721.9063,1032.2344 720.5781,1030.5938 Q719.2656,1028.9375 719.2656,1025.8125 Q719.2656,1022.6875 720.5781,1021.0313 Q721.9063,1019.375 724.4063,1019.375 Q725.1094,1019.375 725.75,1019.5313 Q726.4063,1019.6875 726.9688,1019.9844 L726.9688,1022.7031 Q726.3438,1022.125 725.75,1021.8594 Q725.1563,1021.5781 724.5313,1021.5781 Q723.1875,1021.5781 722.5,1022.6563 Q721.8125,1023.7188 721.8125,1025.8125 Q721.8125,1027.9063 722.5,1028.9844 Q723.1875,1030.0469 724.5313,1030.0469 Q725.1563,1030.0469 725.75,1029.7813 Q726.3438,1029.5 726.9688,1028.9219 L726.9688,1031.6406 Z " fill="#000000"/><text fill="#000000" font-family="sans-serif" font-size="14" lengthAdjust="spacing" textLength="252" x="738" y="1030.8467">NodeLabelledOpenMultiDiGraphView</text><line style="stroke:#181818;stroke-width:0.5;" x1="710" x2="992" y1="1042" y2="1042"/><line style="stroke:#181818;stroke-width:0.5;" x1="710" x2="992" y1="1050" y2="1050"/></g><!--class UnorderedNodeLabelledOpenMultiDiGraph--><g id="elem_UnorderedNodeLabelledOpenMultiDiGraph"><rect codeLine="21" fill="#F1F1F1" height="48" id="UnorderedNodeLabelledOpenMultiDiGraph" rx="2.5" ry="2.5" style="stroke:#181818;stroke-width:0.5;" width="326" x="1061.5" y="1093"/><ellipse cx="1076.5" cy="1109" fill="#ADD1B2" rx="11" ry="11" style="stroke:#181818;stroke-width:1.0;"/><path d="M1079.4688,1114.6406 Q1078.8906,1114.9375 1078.25,1115.0781 Q1077.6094,1115.2344 1076.9063,1115.2344 Q1074.4063,1115.2344 1073.0781,1113.5938 Q1071.7656,1111.9375 1071.7656,1108.8125 Q1071.7656,1105.6875 1073.0781,1104.0313 Q1074.4063,1102.375 1076.9063,1102.375 Q1077.6094,1102.375 1078.25,1102.5313 Q1078.9063,1102.6875 1079.4688,1102.9844 L1079.4688,1105.7031 Q1078.8438,1105.125 1078.25,1104.8594 Q1077.6563,1104.5781 1077.0313,1104.5781 Q1075.6875,1104.5781 1075,1105.6563 Q1074.3125,1106.7188 1074.3125,1108.8125 Q1074.3125,1110.9063 1075,1111.9844 Q1075.6875,1113.0469 1077.0313,1113.0469 Q1077.6563,1113.0469 1078.25,1112.7813 Q1078.8438,1112.5 1079.4688,1111.9219 L1079.4688,1114.6406 Z " fill="#000000"/><text fill="#000000" font-family="sans-serif" font-size="14" lengthAdjust="spacing" textLength="294" x="1090.5" y="1113.8467">UnorderedNodeLabelledOpenMultiDiGraph</text><line style="stroke:#181818;stroke-width:0.5;" x1="1062.5" x2="1386.5" y1="1125" y2="1125"/><line style="stroke:#181818;stroke-width:0.5;" x1="1062.5" x2="1386.5" y1="1133" y2="1133"/></g><!--class IOutputLabelledMultiDiGraph--><g id="elem_IOutputLabelledMultiDiGraph"><rect codeLine="25" fill="#F1F1F1" height="48" id="IOutputLabelledMultiDiGraph" rx="2.5" ry="2.5" style="stroke:#181818;stroke-width:0.5;" width="228" x="737" y="389"/><ellipse cx="752" cy="405" fill="#A9DCDF" rx="11" ry="11" style="stroke:#181818;stroke-width:1.0;"/><path d="M752.1094,400.3438 L750.9531,405.4219 L753.2813,405.4219 L752.1094,400.3438 Z M750.625,398.1094 L753.6094,398.1094 L756.9688,410.5 L754.5156,410.5 L753.75,407.4375 L750.4688,407.4375 L749.7188,410.5 L747.2813,410.5 L750.625,398.1094 Z " fill="#000000"/><text fill="#000000" font-family="sans-serif" font-size="14" font-style="italic" lengthAdjust="spacing" textLength="196" x="766" y="409.8467">IOutputLabelledMultiDiGraph</text><line style="stroke:#181818;stroke-width:0.5;" x1="738" x2="964" y1="421" y2="421"/><line style="stroke:#181818;stroke-width:0.5;" x1="738" x2="964" y1="429" y2="429"/></g><!--class IOutputLabelledMultiDiGraphView--><g id="elem_IOutputLabelledMultiDiGraphView"><rect codeLine="26" fill="#F1F1F1" height="48" id="IOutputLabelledMultiDiGraphView" rx="2.5" ry="2.5" style="stroke:#181818;stroke-width:0.5;" width="260" x="368.5" y="431"/><ellipse cx="383.5" cy="447" fill="#A9DCDF" rx="11" ry="11" style="stroke:#181818;stroke-width:1.0;"/><path d="M383.6094,442.3438 L382.4531,447.4219 L384.7813,447.4219 L383.6094,442.3438 Z M382.125,440.1094 L385.1094,440.1094 L388.4688,452.5 L386.0156,452.5 L385.25,449.4375 L381.9688,449.4375 L381.2188,452.5 L378.7813,452.5 L382.125,440.1094 Z " fill="#000000"/><text fill="#000000" font-family="sans-serif" font-size="14" font-style="italic" lengthAdjust="spacing" textLength="228" x="397.5" y="451.8467">IOutputLabelledMultiDiGraphView</text><line style="stroke:#181818;stroke-width:0.5;" x1="369.5" x2="627.5" y1="463" y2="463"/><line style="stroke:#181818;stroke-width:0.5;" x1="369.5" x2="627.5" y1="471" y2="471"/></g><!--class IOutputLabelledOpenMultiDiGraph--><g id="elem_IOutputLabelledOpenMultiDiGraph"><rect codeLine="27" fill="#F1F1F1" height="48" id="IOutputLabelledOpenMultiDiGraph" rx="2.5" ry="2.5" style="stroke:#181818;stroke-width:0.5;" width="266" x="1091.5" y="721"/><ellipse cx="1106.5" cy="737" fill="#A9DCDF" rx="11" ry="11" style="stroke:#181818;stroke-width:1.0;"/><path d="M1106.6094,732.3438 L1105.4531,737.4219 L1107.7813,737.4219 L1106.6094,732.3438 Z M1105.125,730.1094 L1108.1094,730.1094 L1111.4688,742.5 L1109.0156,742.5 L1108.25,739.4375 L1104.9688,739.4375 L1104.2188,742.5 L1101.7813,742.5 L1105.125,730.1094 Z " fill="#000000"/><text fill="#000000" font-family="sans-serif" font-size="14" font-style="italic" lengthAdjust="spacing" textLength="234" x="1120.5" y="741.8467">IOutputLabelledOpenMultiDiGraph</text><line style="stroke:#181818;stroke-width:0.5;" x1="1092.5" x2="1356.5" y1="753" y2="753"/><line style="stroke:#181818;stroke-width:0.5;" x1="1092.5" x2="1356.5" y1="761" y2="761"/></g><!--class IOutputLabelledOpenMultiDiGraphView--><g id="elem_IOutputLabelledOpenMultiDiGraphView"><rect codeLine="28" fill="#F1F1F1" height="48" id="IOutputLabelledOpenMultiDiGraphView" rx="2.5" ry="2.5" style="stroke:#181818;stroke-width:0.5;" width="298" x="702" y="638"/><ellipse cx="717" cy="654" fill="#A9DCDF" rx="11" ry="11" style="stroke:#181818;stroke-width:1.0;"/><path d="M717.1094,649.3438 L715.9531,654.4219 L718.2813,654.4219 L717.1094,649.3438 Z M715.625,647.1094 L718.6094,647.1094 L721.9688,659.5 L719.5156,659.5 L718.75,656.4375 L715.4688,656.4375 L714.7188,659.5 L712.2813,659.5 L715.625,647.1094 Z " fill="#000000"/><text fill="#000000" font-family="sans-serif" font-size="14" font-style="italic" lengthAdjust="spacing" textLength="266" x="731" y="658.8467">IOutputLabelledOpenMultiDiGraphView</text><line style="stroke:#181818;stroke-width:0.5;" x1="703" x2="999" y1="670" y2="670"/><line style="stroke:#181818;stroke-width:0.5;" x1="703" x2="999" y1="678" y2="678"/></g><!--class OutputLabelledMultiDiGraph--><g id="elem_OutputLabelledMultiDiGraph"><rect codeLine="29" fill="#F1F1F1" height="48" id="OutputLabelledMultiDiGraph" rx="2.5" ry="2.5" style="stroke:#181818;stroke-width:0.5;" width="225" x="1112" y="389"/><ellipse cx="1127" cy="405" fill="#ADD1B2" rx="11" ry="11" style="stroke:#181818;stroke-width:1.0;"/><path d="M1129.9688,410.6406 Q1129.3906,410.9375 1128.75,411.0781 Q1128.1094,411.2344 1127.4063,411.2344 Q1124.9063,411.2344 1123.5781,409.5938 Q1122.2656,407.9375 1122.2656,404.8125 Q1122.2656,401.6875 1123.5781,400.0313 Q1124.9063,398.375 1127.4063,398.375 Q1128.1094,398.375 1128.75,398.5313 Q1129.4063,398.6875 1129.9688,398.9844 L1129.9688,401.7031 Q1129.3438,401.125 1128.75,400.8594 Q1128.1563,400.5781 1127.5313,400.5781 Q1126.1875,400.5781 1125.5,401.6563 Q1124.8125,402.7188 1124.8125,404.8125 Q1124.8125,406.9063 1125.5,407.9844 Q1126.1875,409.0469 1127.5313,409.0469 Q1128.1563,409.0469 1128.75,408.7813 Q1129.3438,408.5 1129.9688,407.9219 L1129.9688,410.6406 Z " fill="#000000"/><text fill="#000000" font-family="sans-serif" font-size="14" lengthAdjust="spacing" textLength="193" x="1141" y="409.8467">OutputLabelledMultiDiGraph</text><line style="stroke:#181818;stroke-width:0.5;" x1="1113" x2="1336" y1="421" y2="421"/><line style="stroke:#181818;stroke-width:0.5;" x1="1113" x2="1336" y1="429" y2="429"/></g><!--class OutputLabelledMultiDiGraphView--><g id="elem_OutputLabelledMultiDiGraphView"><rect codeLine="30" fill="#F1F1F1" height="48" id="OutputLabelledMultiDiGraphView" rx="2.5" ry="2.5" style="stroke:#181818;stroke-width:0.5;" width="257" x="722.5" y="472"/><ellipse cx="737.5" cy="488" fill="#ADD1B2" rx="11" ry="11" style="stroke:#181818;stroke-width:1.0;"/><path d="M740.4688,493.6406 Q739.8906,493.9375 739.25,494.0781 Q738.6094,494.2344 737.9063,494.2344 Q735.4063,494.2344 734.0781,492.5938 Q732.7656,490.9375 732.7656,487.8125 Q732.7656,484.6875 734.0781,483.0313 Q735.4063,481.375 737.9063,481.375 Q738.6094,481.375 739.25,481.5313 Q739.9063,481.6875 740.4688,481.9844 L740.4688,484.7031 Q739.8438,484.125 739.25,483.8594 Q738.6563,483.5781 738.0313,483.5781 Q736.6875,483.5781 736,484.6563 Q735.3125,485.7188 735.3125,487.8125 Q735.3125,489.9063 736,490.9844 Q736.6875,492.0469 738.0313,492.0469 Q738.6563,492.0469 739.25,491.7813 Q739.8438,491.5 740.4688,490.9219 L740.4688,493.6406 Z " fill="#000000"/><text fill="#000000" font-family="sans-serif" font-size="14" lengthAdjust="spacing" textLength="225" x="751.5" y="492.8467">OutputLabelledMultiDiGraphView</text><line style="stroke:#181818;stroke-width:0.5;" x1="723.5" x2="978.5" y1="504" y2="504"/><line style="stroke:#181818;stroke-width:0.5;" x1="723.5" x2="978.5" y1="512" y2="512"/></g><!--class OutputLabelledOpenMultiDiGraph--><g id="elem_OutputLabelledOpenMultiDiGraph"><rect codeLine="31" fill="#F1F1F1" height="48" id="OutputLabelledOpenMultiDiGraph" rx="2.5" ry="2.5" style="stroke:#181818;stroke-width:0.5;" width="263" x="1486" y="555"/><ellipse cx="1501" cy="571" fill="#ADD1B2" rx="11" ry="11" style="stroke:#181818;stroke-width:1.0;"/><path d="M1503.9688,576.6406 Q1503.3906,576.9375 1502.75,577.0781 Q1502.1094,577.2344 1501.4063,577.2344 Q1498.9063,577.2344 1497.5781,575.5938 Q1496.2656,573.9375 1496.2656,570.8125 Q1496.2656,567.6875 1497.5781,566.0313 Q1498.9063,564.375 1501.4063,564.375 Q1502.1094,564.375 1502.75,564.5313 Q1503.4063,564.6875 1503.9688,564.9844 L1503.9688,567.7031 Q1503.3438,567.125 1502.75,566.8594 Q1502.1563,566.5781 1501.5313,566.5781 Q1500.1875,566.5781 1499.5,567.6563 Q1498.8125,568.7188 1498.8125,570.8125 Q1498.8125,572.9063 1499.5,573.9844 Q1500.1875,575.0469 1501.5313,575.0469 Q1502.1563,575.0469 1502.75,574.7813 Q1503.3438,574.5 1503.9688,573.9219 L1503.9688,576.6406 Z " fill="#000000"/><text fill="#000000" font-family="sans-serif" font-size="14" lengthAdjust="spacing" textLength="231" x="1515" y="575.8467">OutputLabelledOpenMultiDiGraph</text><line style="stroke:#181818;stroke-width:0.5;" x1="1487" x2="1748" y1="587" y2="587"/><line style="stroke:#181818;stroke-width:0.5;" x1="1487" x2="1748" y1="595" y2="595"/></g><!--class OutputLabelledOpenMultiDiGraphView--><g id="elem_OutputLabelledOpenMultiDiGraphView"><rect codeLine="32" fill="#F1F1F1" height="48" id="OutputLabelledOpenMultiDiGraphView" rx="2.5" ry="2.5" style="stroke:#181818;stroke-width:0.5;" width="295" x="1077" y="472"/><ellipse cx="1092" cy="488" fill="#ADD1B2" rx="11" ry="11" style="stroke:#181818;stroke-width:1.0;"/><path d="M1094.9688,493.6406 Q1094.3906,493.9375 1093.75,494.0781 Q1093.1094,494.2344 1092.4063,494.2344 Q1089.9063,494.2344 1088.5781,492.5938 Q1087.2656,490.9375 1087.2656,487.8125 Q1087.2656,484.6875 1088.5781,483.0313 Q1089.9063,481.375 1092.4063,481.375 Q1093.1094,481.375 1093.75,481.5313 Q1094.4063,481.6875 1094.9688,481.9844 L1094.9688,484.7031 Q1094.3438,484.125 1093.75,483.8594 Q1093.1563,483.5781 1092.5313,483.5781 Q1091.1875,483.5781 1090.5,484.6563 Q1089.8125,485.7188 1089.8125,487.8125 Q1089.8125,489.9063 1090.5,490.9844 Q1091.1875,492.0469 1092.5313,492.0469 Q1093.1563,492.0469 1093.75,491.7813 Q1094.3438,491.5 1094.9688,490.9219 L1094.9688,493.6406 Z " fill="#000000"/><text fill="#000000" font-family="sans-serif" font-size="14" lengthAdjust="spacing" textLength="263" x="1106" y="492.8467">OutputLabelledOpenMultiDiGraphView</text><line style="stroke:#181818;stroke-width:0.5;" x1="1078" x2="1371" y1="504" y2="504"/><line style="stroke:#181818;stroke-width:0.5;" x1="1078" x2="1371" y1="512" y2="512"/></g><!--class OutputLabelledOpenMultiDiSubgraphView--><g id="elem_OutputLabelledOpenMultiDiSubgraphView"><rect codeLine="33" fill="#F1F1F1" height="48" id="OutputLabelledOpenMultiDiSubgraphView" rx="2.5" ry="2.5" style="stroke:#181818;stroke-width:0.5;" width="320" x="1064.5" y="638"/><ellipse cx="1079.5" cy="654" fill="#ADD1B2" rx="11" ry="11" style="stroke:#181818;stroke-width:1.0;"/><path d="M1082.4688,659.6406 Q1081.8906,659.9375 1081.25,660.0781 Q1080.6094,660.2344 1079.9063,660.2344 Q1077.4063,660.2344 1076.0781,658.5938 Q1074.7656,656.9375 1074.7656,653.8125 Q1074.7656,650.6875 1076.0781,649.0313 Q1077.4063,647.375 1079.9063,647.375 Q1080.6094,647.375 1081.25,647.5313 Q1081.9063,647.6875 1082.4688,647.9844 L1082.4688,650.7031 Q1081.8438,650.125 1081.25,649.8594 Q1080.6563,649.5781 1080.0313,649.5781 Q1078.6875,649.5781 1078,650.6563 Q1077.3125,651.7188 1077.3125,653.8125 Q1077.3125,655.9063 1078,656.9844 Q1078.6875,658.0469 1080.0313,658.0469 Q1080.6563,658.0469 1081.25,657.7813 Q1081.8438,657.5 1082.4688,656.9219 L1082.4688,659.6406 Z " fill="#000000"/><text fill="#000000" font-family="sans-serif" font-size="14" lengthAdjust="spacing" textLength="288" x="1093.5" y="658.8467">OutputLabelledOpenMultiDiSubgraphView</text><line style="stroke:#181818;stroke-width:0.5;" x1="1065.5" x2="1383.5" y1="670" y2="670"/><line style="stroke:#181818;stroke-width:0.5;" x1="1065.5" x2="1383.5" y1="678" y2="678"/></g><!--class UnorderedOutputLabelledMultiDiGraph--><g id="elem_UnorderedOutputLabelledMultiDiGraph"><rect codeLine="34" fill="#F1F1F1" height="48" id="UnorderedOutputLabelledMultiDiGraph" rx="2.5" ry="2.5" style="stroke:#181818;stroke-width:0.5;" width="299" x="1075" y="306"/><ellipse cx="1090" cy="322" fill="#ADD1B2" rx="11" ry="11" style="stroke:#181818;stroke-width:1.0;"/><path d="M1092.9688,327.6406 Q1092.3906,327.9375 1091.75,328.0781 Q1091.1094,328.2344 1090.4063,328.2344 Q1087.9063,328.2344 1086.5781,326.5938 Q1085.2656,324.9375 1085.2656,321.8125 Q1085.2656,318.6875 1086.5781,317.0313 Q1087.9063,315.375 1090.4063,315.375 Q1091.1094,315.375 1091.75,315.5313 Q1092.4063,315.6875 1092.9688,315.9844 L1092.9688,318.7031 Q1092.3438,318.125 1091.75,317.8594 Q1091.1563,317.5781 1090.5313,317.5781 Q1089.1875,317.5781 1088.5,318.6563 Q1087.8125,319.7188 1087.8125,321.8125 Q1087.8125,323.9063 1088.5,324.9844 Q1089.1875,326.0469 1090.5313,326.0469 Q1091.1563,326.0469 1091.75,325.7813 Q1092.3438,325.5 1092.9688,324.9219 L1092.9688,327.6406 Z " fill="#000000"/><text fill="#000000" font-family="sans-serif" font-size="14" lengthAdjust="spacing" textLength="267" x="1104" y="326.8467">UnorderedOutputLabelledMultiDiGraph</text><line style="stroke:#181818;stroke-width:0.5;" x1="1076" x2="1373" y1="338" y2="338"/><line style="stroke:#181818;stroke-width:0.5;" x1="1076" x2="1373" y1="346" y2="346"/></g><!--class UnorderedOutputLabelledOpenMultiDiGraph--><g id="elem_UnorderedOutputLabelledOpenMultiDiGraph"><rect codeLine="35" fill="#F1F1F1" height="48" id="UnorderedOutputLabelledOpenMultiDiGraph" rx="2.5" ry="2.5" style="stroke:#181818;stroke-width:0.5;" width="337" x="1449" y="721"/><ellipse cx="1464" cy="737" fill="#ADD1B2" rx="11" ry="11" style="stroke:#181818;stroke-width:1.0;"/><path d="M1466.9688,742.6406 Q1466.3906,742.9375 1465.75,743.0781 Q1465.1094,743.2344 1464.4063,743.2344 Q1461.9063,743.2344 1460.5781,741.5938 Q1459.2656,739.9375 1459.2656,736.8125 Q1459.2656,733.6875 1460.5781,732.0313 Q1461.9063,730.375 1464.4063,730.375 Q1465.1094,730.375 1465.75,730.5313 Q1466.4063,730.6875 1466.9688,730.9844 L1466.9688,733.7031 Q1466.3438,733.125 1465.75,732.8594 Q1465.1563,732.5781 1464.5313,732.5781 Q1463.1875,732.5781 1462.5,733.6563 Q1461.8125,734.7188 1461.8125,736.8125 Q1461.8125,738.9063 1462.5,739.9844 Q1463.1875,741.0469 1464.5313,741.0469 Q1465.1563,741.0469 1465.75,740.7813 Q1466.3438,740.5 1466.9688,739.9219 L1466.9688,742.6406 Z " fill="#000000"/><text fill="#000000" font-family="sans-serif" font-size="14" lengthAdjust="spacing" textLength="305" x="1478" y="741.8467">UnorderedOutputLabelledOpenMultiDiGraph</text><line style="stroke:#181818;stroke-width:0.5;" x1="1450" x2="1785" y1="753" y2="753"/><line style="stroke:#181818;stroke-width:0.5;" x1="1450" x2="1785" y1="761" y2="761"/></g><!--class ViewMultiDiGraphAsOutputLabelled--><g id="elem_ViewMultiDiGraphAsOutputLabelled"><rect codeLine="36" fill="#F1F1F1" height="48" id="ViewMultiDiGraphAsOutputLabelled" rx="2.5" ry="2.5" style="stroke:#181818;stroke-width:0.5;" width="274" x="714" y="306"/><ellipse cx="729" cy="322" fill="#ADD1B2" rx="11" ry="11" style="stroke:#181818;stroke-width:1.0;"/><path d="M731.9688,327.6406 Q731.3906,327.9375 730.75,328.0781 Q730.1094,328.2344 729.4063,328.2344 Q726.9063,328.2344 725.5781,326.5938 Q724.2656,324.9375 724.2656,321.8125 Q724.2656,318.6875 725.5781,317.0313 Q726.9063,315.375 729.4063,315.375 Q730.1094,315.375 730.75,315.5313 Q731.4063,315.6875 731.9688,315.9844 L731.9688,318.7031 Q731.3438,318.125 730.75,317.8594 Q730.1563,317.5781 729.5313,317.5781 Q728.1875,317.5781 727.5,318.6563 Q726.8125,319.7188 726.8125,321.8125 Q726.8125,323.9063 727.5,324.9844 Q728.1875,326.0469 729.5313,326.0469 Q730.1563,326.0469 730.75,325.7813 Q731.3438,325.5 731.9688,324.9219 L731.9688,327.6406 Z " fill="#000000"/><text fill="#000000" font-family="sans-serif" font-size="14" lengthAdjust="spacing" textLength="242" x="743" y="326.8467">ViewMultiDiGraphAsOutputLabelled</text><line style="stroke:#181818;stroke-width:0.5;" x1="715" x2="987" y1="338" y2="338"/><line style="stroke:#181818;stroke-width:0.5;" x1="715" x2="987" y1="346" y2="346"/></g><!--class ViewOutputLabelledAsOutputLabelledOpen--><g id="elem_ViewOutputLabelledAsOutputLabelledOpen"><rect codeLine="37" fill="#F1F1F1" height="48" id="ViewOutputLabelledAsOutputLabelledOpen" rx="2.5" ry="2.5" style="stroke:#181818;stroke-width:0.5;" width="329" x="1060" y="555"/><ellipse cx="1075" cy="571" fill="#ADD1B2" rx="11" ry="11" style="stroke:#181818;stroke-width:1.0;"/><path d="M1077.9688,576.6406 Q1077.3906,576.9375 1076.75,577.0781 Q1076.1094,577.2344 1075.4063,577.2344 Q1072.9063,577.2344 1071.5781,575.5938 Q1070.2656,573.9375 1070.2656,570.8125 Q1070.2656,567.6875 1071.5781,566.0313 Q1072.9063,564.375 1075.4063,564.375 Q1076.1094,564.375 1076.75,564.5313 Q1077.4063,564.6875 1077.9688,564.9844 L1077.9688,567.7031 Q1077.3438,567.125 1076.75,566.8594 Q1076.1563,566.5781 1075.5313,566.5781 Q1074.1875,566.5781 1073.5,567.6563 Q1072.8125,568.7188 1072.8125,570.8125 Q1072.8125,572.9063 1073.5,573.9844 Q1074.1875,575.0469 1075.5313,575.0469 Q1076.1563,575.0469 1076.75,574.7813 Q1077.3438,574.5 1077.9688,573.9219 L1077.9688,576.6406 Z " fill="#000000"/><text fill="#000000" font-family="sans-serif" font-size="14" lengthAdjust="spacing" textLength="297" x="1089" y="575.8467">ViewOutputLabelledAsOutputLabelledOpen</text><line style="stroke:#181818;stroke-width:0.5;" x1="1061" x2="1388" y1="587" y2="587"/><line style="stroke:#181818;stroke-width:0.5;" x1="1061" x2="1388" y1="595" y2="595"/></g><!--reverse link ILabelledMultiDiGraphView to ILabelledMultiDiGraph--><g id="link_ILabelledMultiDiGraphView_ILabelledMultiDiGraph"><path codeLine="40" d="M622.532,175.2572 C672.242,169.2972 713.08,164.41 760.6,158.71 " fill="none" id="ILabelledMultiDiGraphView-backto-ILabelledMultiDiGraph" style="stroke:#181818;stroke-width:1.0;"/><polygon fill="none" points="604.66,177.4,623.2463,181.2146,621.8177,169.2999,604.66,177.4" style="stroke:#181818;stroke-width:1.0;"/></g><!--reverse link ILabelledMultiDiGraphView to LabelledMultiDiSubgraphView--><g id="link_ILabelledMultiDiGraphView_LabelledMultiDiSubgraphView"><path codeLine="41" d="M569.8475,158.2523 C610.2475,140.4223 650.72,123.66 702,106 C719.02,100.14 737.35,94.52 755.12,89.42 " fill="none" id="ILabelledMultiDiGraphView-backto-LabelledMultiDiSubgraphView" style="stroke:#181818;stroke-width:1.0;"/><polygon fill="none" points="553.38,165.52,572.2701,163.7415,567.425,152.7631,553.38,165.52" style="stroke:#181818;stroke-width:1.0;"/></g><!--reverse link INodeLabelledMultiDiGraph to IOutputLabelledMultiDiGraph--><g id="link_INodeLabelledMultiDiGraph_IOutputLabelledMultiDiGraph"><path codeLine="42" d="M623.6923,927.5722 C636.8723,921.5722 632.59,920.93 642,910 C775.36,755.08 567.88,608.26 702,454 C711.45,443.13 723.49,435.03 736.62,429 " fill="none" id="INodeLabelledMultiDiGraph-backto-IOutputLabelledMultiDiGraph" style="stroke:#181818;stroke-width:1.0;"/><polygon fill="none" points="607.31,935.03,626.1783,933.033,621.2064,922.1114,607.31,935.03" style="stroke:#181818;stroke-width:1.0;"/></g><!--reverse link INodeLabelledMultiDiGraphView to ILabelledMultiDiGraphView--><g id="link_INodeLabelledMultiDiGraphView_ILabelledMultiDiGraphView"><path codeLine="43" d="M173.1288,867.7791 C177.2088,779.2591 200.75,486.34 344.5,290 C368.96,256.59 408.25,231.25 440.88,214.45 " fill="none" id="INodeLabelledMultiDiGraphView-backto-ILabelledMultiDiGraphView" style="stroke:#181818;stroke-width:1.0;"/><polygon fill="none" points="172.3,885.76,179.1224,868.0553,167.1351,867.5028,172.3,885.76" style="stroke:#181818;stroke-width:1.0;"/></g><!--reverse link INodeLabelledMultiDiGraphView to INodeLabelledMultiDiGraph--><g id="link_INodeLabelledMultiDiGraphView_INodeLabelledMultiDiGraph"><path codeLine="44" d="M313.0691,927.8075 C344.1391,931.7175 359.38,933.63 389.61,937.43 " fill="none" id="INodeLabelledMultiDiGraphView-backto-INodeLabelledMultiDiGraph" style="stroke:#181818;stroke-width:1.0;"/><polygon fill="none" points="295.21,925.56,312.32,933.7605,313.8183,921.8544,295.21,925.56" style="stroke:#181818;stroke-width:1.0;"/></g><!--reverse link INodeLabelledMultiDiGraphView to INodeLabelledOpenMultiDiGraphView--><g id="link_INodeLabelledMultiDiGraphView_INodeLabelledOpenMultiDiGraphView"><path codeLine="45" d="M201.1871,948.3475 C230.1271,984.6675 278.5,1038.8 344.5,1076 C356,1082.48 368.56,1087.97 381.39,1092.62 " fill="none" id="INodeLabelledMultiDiGraphView-backto-INodeLabelledOpenMultiDiGraphView" style="stroke:#181818;stroke-width:1.0;"/><polygon fill="none" points="189.97,934.27,196.4946,952.0866,205.8796,944.6085,189.97,934.27" style="stroke:#181818;stroke-width:1.0;"/></g><!--reverse link INodeLabelledMultiDiGraphView to IOutputLabelledMultiDiGraphView--><g id="link_INodeLabelledMultiDiGraphView_IOutputLabelledMultiDiGraphView"><path codeLine="46" d="M199.5131,870.9077 C256.1831,791.8077 423.57,558.18 480.08,479.31 " fill="none" id="INodeLabelledMultiDiGraphView-backto-IOutputLabelledMultiDiGraphView" style="stroke:#181818;stroke-width:1.0;"/><polygon fill="none" points="189.03,885.54,204.3905,874.4021,194.6357,867.4133,189.03,885.54" style="stroke:#181818;stroke-width:1.0;"/></g><!--reverse link INodeLabelledMultiDiGraphView to NodeLabelledMultiDiSubgraphView--><g id="link_INodeLabelledMultiDiGraphView_NodeLabelledMultiDiSubgraphView"><path codeLine="47" d="M313.0628,891.7627 C335.1328,888.9227 340.36,888.24 362.72,885.36 " fill="none" id="INodeLabelledMultiDiGraphView-backto-NodeLabelledMultiDiSubgraphView" style="stroke:#181818;stroke-width:1.0;"/><polygon fill="none" points="295.21,894.06,313.8286,897.7136,312.297,885.8117,295.21,894.06" style="stroke:#181818;stroke-width:1.0;"/></g><!--reverse link INodeLabelledOpenMultiDiGraph to UnorderedNodeLabelledOpenMultiDiGraph--><g id="link_INodeLabelledOpenMultiDiGraph_UnorderedNodeLabelledOpenMultiDiGraph"><path codeLine="48" d="M996.81,1117 C1023.29,1117 1033.56,1117 1061.13,1117 " fill="none" id="INodeLabelledOpenMultiDiGraph-backto-UnorderedNodeLabelledOpenMultiDiGraph" style="stroke:#181818;stroke-width:1.0;"/><polygon fill="none" points="978.81,1117,996.81,1123,996.81,1111,978.81,1117" style="stroke:#181818;stroke-width:1.0;"/></g><!--reverse link INodeLabelledOpenMultiDiGraphView to INodeLabelledOpenMultiDiGraph--><g id="link_INodeLabelledOpenMultiDiGraphView_INodeLabelledOpenMultiDiGraph"><path codeLine="49" d="M660.31,1117 C687.12,1117 696.97,1117 723.24,1117 " fill="none" id="INodeLabelledOpenMultiDiGraphView-backto-INodeLabelledOpenMultiDiGraph" style="stroke:#181818;stroke-width:1.0;"/><polygon fill="none" points="642.31,1117,660.31,1123,660.31,1111,642.31,1117" style="stroke:#181818;stroke-width:1.0;"/></g><!--reverse link INodeLabelledOpenMultiDiGraphView to IOutputLabelledOpenMultiDiGraphView--><g id="link_INodeLabelledOpenMultiDiGraphView_IOutputLabelledOpenMultiDiGraphView"><path codeLine="50" d="M636.2541,1083.4113 C644.0241,1078.7713 635.77,1082.51 642,1076 C720.45,994.12 649.36,928.44 702,828 C732.29,770.21 787.09,716.37 820.83,686.46 " fill="none" id="INodeLabelledOpenMultiDiGraphView-backto-IOutputLabelledOpenMultiDiGraphView" style="stroke:#181818;stroke-width:1.0;"/><polygon fill="none" points="620.8,1092.64,639.3304,1088.5627,633.1779,1078.2599,620.8,1092.64" style="stroke:#181818;stroke-width:1.0;"/></g><!--reverse link IOutputLabelledMultiDiGraph to UnorderedOutputLabelledMultiDiGraph--><g id="link_IOutputLabelledMultiDiGraph_UnorderedOutputLabelledMultiDiGraph"><path codeLine="51" d="M979.0165,384.6236 C1027.0665,373.8836 1065.8,365.23 1113.87,354.49 " fill="none" id="IOutputLabelledMultiDiGraph-backto-UnorderedOutputLabelledMultiDiGraph" style="stroke:#181818;stroke-width:1.0;"/><polygon fill="none" points="961.45,388.55,980.3253,390.4791,977.7077,378.7681,961.45,388.55" style="stroke:#181818;stroke-width:1.0;"/></g><!--reverse link IOutputLabelledMultiDiGraphView to IOutputLabelledMultiDiGraph--><g id="link_IOutputLabelledMultiDiGraphView_IOutputLabelledMultiDiGraph"><path codeLine="52" d="M646.3919,437.3962 C681.8219,433.1462 702.09,430.72 736.57,426.59 " fill="none" id="IOutputLabelledMultiDiGraphView-backto-IOutputLabelledMultiDiGraph" style="stroke:#181818;stroke-width:1.0;"/><polygon fill="none" points="628.52,439.54,647.1065,443.3535,645.6773,431.4389,628.52,439.54" style="stroke:#181818;stroke-width:1.0;"/></g><!--reverse link IOutputLabelledMultiDiGraphView to ViewMultiDiGraphAsOutputLabelled--><g id="link_IOutputLabelledMultiDiGraphView_ViewMultiDiGraphAsOutputLabelled"><path codeLine="53" d="M645.441,426.2131 C677.921,409.6131 670.18,388.83 702,371 C713.51,364.55 726.11,359.06 738.94,354.4 " fill="none" id="IOutputLabelledMultiDiGraphView-backto-ViewMultiDiGraphAsOutputLabelled" style="stroke:#181818;stroke-width:1.0;"/><polygon fill="none" points="628.79,433.05,647.72,431.7635,643.1621,420.6628,628.79,433.05" style="stroke:#181818;stroke-width:1.0;"/></g><!--reverse link IOutputLabelledOpenMultiDiGraph to UnorderedOutputLabelledOpenMultiDiGraph--><g id="link_IOutputLabelledOpenMultiDiGraph_UnorderedOutputLabelledOpenMultiDiGraph"><path codeLine="54" d="M1375.87,745 C1405.01,745 1418.24,745 1448.56,745 " fill="none" id="IOutputLabelledOpenMultiDiGraph-backto-UnorderedOutputLabelledOpenMultiDiGraph" style="stroke:#181818;stroke-width:1.0;"/><polygon fill="none" points="1357.87,745,1375.87,751,1375.87,739,1357.87,745" style="stroke:#181818;stroke-width:1.0;"/></g><!--reverse link IOutputLabelledOpenMultiDiGraphView to IOutputLabelledOpenMultiDiGraph--><g id="link_IOutputLabelledOpenMultiDiGraphView_IOutputLabelledOpenMultiDiGraph"><path codeLine="55" d="M979.0165,690.3764 C1027.0665,701.1164 1065.8,709.77 1113.87,720.51 " fill="none" id="IOutputLabelledOpenMultiDiGraphView-backto-IOutputLabelledOpenMultiDiGraph" style="stroke:#181818;stroke-width:1.0;"/><polygon fill="none" points="961.45,686.45,977.7077,696.2319,980.3253,684.5209,961.45,686.45" style="stroke:#181818;stroke-width:1.0;"/></g><!--reverse link IOutputLabelledOpenMultiDiGraphView to OutputLabelledOpenMultiDiSubgraphView--><g id="link_IOutputLabelledOpenMultiDiGraphView_OutputLabelledOpenMultiDiSubgraphView"><path codeLine="56" d="M1018.43,662 C1039.35,662 1042.92,662 1064.04,662 " fill="none" id="IOutputLabelledOpenMultiDiGraphView-backto-OutputLabelledOpenMultiDiSubgraphView" style="stroke:#181818;stroke-width:1.0;"/><polygon fill="none" points="1000.43,662,1018.43,668,1018.43,656,1000.43,662" style="stroke:#181818;stroke-width:1.0;"/></g><!--reverse link IOutputLabelledOpenMultiDiGraphView to ViewOutputLabelledAsOutputLabelledOpen--><g id="link_IOutputLabelledOpenMultiDiGraphView_ViewOutputLabelledAsOutputLabelledOpen"><path codeLine="57" d="M979.0165,633.6236 C1027.0665,622.8836 1065.8,614.23 1113.87,603.49 " fill="none" id="IOutputLabelledOpenMultiDiGraphView-backto-ViewOutputLabelledAsOutputLabelledOpen" style="stroke:#181818;stroke-width:1.0;"/><polygon fill="none" points="961.45,637.55,980.3253,639.4791,977.7077,627.7681,961.45,637.55" style="stroke:#181818;stroke-width:1.0;"/></g><!--reverse link LabelledMultiDiGraphView to LabelledMultiDiGraph--><g id="link_LabelledMultiDiGraphView_LabelledMultiDiGraph"><path codeLine="58" d="M973.8714,217.5461 C1030.4314,211.3061 1081.74,205.65 1135.59,199.7 " fill="none" id="LabelledMultiDiGraphView-backto-LabelledMultiDiGraph" style="stroke:#181818;stroke-width:1.0;"/><polygon fill="none" points="955.98,219.52,974.5294,223.5099,973.2135,211.5823,955.98,219.52" style="stroke:#181818;stroke-width:1.0;"/></g><!--reverse link NodeLabelledMultiDiGraphView to LabelledMultiDiGraphView--><g id="link_NodeLabelledMultiDiGraphView_LabelledMultiDiGraphView"><path codeLine="59" d="M637.0617,1000.8706 C644.5717,996.0106 636.28,999.96 642,993 C741.55,871.87 608.58,415.92 702,290 C713.29,274.78 729.13,263.49 746.29,255.1 " fill="none" id="NodeLabelledMultiDiGraphView-backto-LabelledMultiDiGraphView" style="stroke:#181818;stroke-width:1.0;"/><polygon fill="none" points="621.95,1010.65,640.3215,1005.9079,633.8019,995.8334,621.95,1010.65" style="stroke:#181818;stroke-width:1.0;"/></g><!--reverse link NodeLabelledMultiDiGraphView to NodeLabelledMultiDiGraph--><g id="link_NodeLabelledMultiDiGraphView_NodeLabelledMultiDiGraph"><path codeLine="60" d="M620.2851,1005.4002 C665.6151,994.6602 701.21,986.23 746.56,975.49 " fill="none" id="NodeLabelledMultiDiGraphView-backto-NodeLabelledMultiDiGraph" style="stroke:#181818;stroke-width:1.0;"/><polygon fill="none" points="602.77,1009.55,621.6684,1011.2385,618.9018,999.5618,602.77,1009.55" style="stroke:#181818;stroke-width:1.0;"/></g><!--reverse link NodeLabelledMultiDiGraphView to NodeLabelledOpenMultiDiGraphView--><g id="link_NodeLabelledMultiDiGraphView_NodeLabelledOpenMultiDiGraphView"><path codeLine="61" d="M639.6,1034 C667.65,1034 679.71,1034 708.51,1034 " fill="none" id="NodeLabelledMultiDiGraphView-backto-NodeLabelledOpenMultiDiGraphView" style="stroke:#181818;stroke-width:1.0;"/><polygon fill="none" points="621.6,1034,639.6,1040,639.6,1028,621.6,1034" style="stroke:#181818;stroke-width:1.0;"/></g><!--reverse link NodeLabelledMultiDiGraphView to OutputLabelledMultiDiGraphView--><g id="link_NodeLabelledMultiDiGraphView_OutputLabelledMultiDiGraphView"><path codeLine="62" d="M636.9591,1000.3963 C644.4691,995.6863 636.11,999.65 642,993 C753.35,867.33 619.09,766.01 702,620 C726.58,576.71 772.44,541.92 806.63,520.33 " fill="none" id="NodeLabelledMultiDiGraphView-backto-OutputLabelledMultiDiGraphView" style="stroke:#181818;stroke-width:1.0;"/><polygon fill="none" points="621.71,1009.96,640.147,1005.4793,633.7712,995.3133,621.71,1009.96" style="stroke:#181818;stroke-width:1.0;"/></g><!--reverse link NodeLabelledOpenMultiDiGraphView to NodeLabelledOpenMultiDiGraph--><g id="link_NodeLabelledOpenMultiDiGraphView_NodeLabelledOpenMultiDiGraph"><path codeLine="63" d="M1011.24,1034 C1045.71,1034 1064.35,1034 1098.02,1034 " fill="none" id="NodeLabelledOpenMultiDiGraphView-backto-NodeLabelledOpenMultiDiGraph" style="stroke:#181818;stroke-width:1.0;"/><polygon fill="none" points="993.24,1034,1011.24,1040,1011.24,1028,993.24,1034" style="stroke:#181818;stroke-width:1.0;"/></g><!--reverse link NodeLabelledOpenMultiDiGraphView to OutputLabelledOpenMultiDiGraphView--><g id="link_NodeLabelledOpenMultiDiGraphView_OutputLabelledOpenMultiDiGraphView"><path codeLine="64" d="M995.854,999.7127 C1002.964,995.0727 994.4,999.44 1000,993 C1134.12,838.74 923.99,689.6 1060,537 C1065.74,530.56 1072.34,525.05 1079.5,520.36 " fill="none" id="NodeLabelledOpenMultiDiGraphView-backto-OutputLabelledOpenMultiDiGraphView" style="stroke:#181818;stroke-width:1.0;"/><polygon fill="none" points="980.78,1009.55,999.1332,1004.7373,992.5749,994.688,980.78,1009.55" style="stroke:#181818;stroke-width:1.0;"/></g><!--reverse link OutputLabelledMultiDiGraphView to OutputLabelledMultiDiGraph--><g id="link_OutputLabelledMultiDiGraphView_OutputLabelledMultiDiGraph"><path codeLine="65" d="M979.0165,467.6236 C1027.0665,456.8836 1065.8,448.23 1113.87,437.49 " fill="none" id="OutputLabelledMultiDiGraphView-backto-OutputLabelledMultiDiGraph" style="stroke:#181818;stroke-width:1.0;"/><polygon fill="none" points="961.45,471.55,980.3253,473.4791,977.7077,461.7681,961.45,471.55" style="stroke:#181818;stroke-width:1.0;"/></g><!--reverse link OutputLabelledMultiDiGraphView to OutputLabelledOpenMultiDiGraphView--><g id="link_OutputLabelledMultiDiGraphView_OutputLabelledOpenMultiDiGraphView"><path codeLine="66" d="M997.85,496 C1029.02,496 1044.6,496 1076.58,496 " fill="none" id="OutputLabelledMultiDiGraphView-backto-OutputLabelledOpenMultiDiGraphView" style="stroke:#181818;stroke-width:1.0;"/><polygon fill="none" points="979.85,496,997.85,502,997.85,490,979.85,496" style="stroke:#181818;stroke-width:1.0;"/></g><!--reverse link OutputLabelledOpenMultiDiGraphView to OutputLabelledOpenMultiDiGraph--><g id="link_OutputLabelledOpenMultiDiGraphView_OutputLabelledOpenMultiDiGraph"><path codeLine="67" d="M1358.3073,524.1894 C1408.8773,534.9294 1450.52,543.77 1501.11,554.51 " fill="none" id="OutputLabelledOpenMultiDiGraphView-backto-OutputLabelledOpenMultiDiGraph" style="stroke:#181818;stroke-width:1.0;"/><polygon fill="none" points="1340.7,520.45,1357.0608,530.0585,1359.5538,518.3203,1340.7,520.45" style="stroke:#181818;stroke-width:1.0;"/></g><!--reverse link IOutputLabelledMultiDiGraphView to OutputLabelledMultiDiGraphView--><g id="link_IOutputLabelledMultiDiGraphView_OutputLabelledMultiDiGraphView"><path codeLine="68" d="M640.4384,471.4867 C670.9884,475.0667 691.63,477.47 722.13,481.04 " fill="none" id="IOutputLabelledMultiDiGraphView-backto-OutputLabelledMultiDiGraphView" style="stroke:#181818;stroke-width:1.0;"/><polygon fill="#181818" points="628.52,470.09,634.0137,474.7611,640.4384,471.4867,634.9448,466.8155,628.52,470.09" style="stroke:#181818;stroke-width:1.0;"/></g><!--reverse link ILabelledMultiDiGraphView to LabelledMultiDiGraphView--><g id="link_ILabelledMultiDiGraphView_LabelledMultiDiGraphView"><path codeLine="69" d="M616.5786,203.695 C661.3486,208.935 701.5,213.63 746.12,218.85 " fill="none" id="ILabelledMultiDiGraphView-backto-LabelledMultiDiGraphView" style="stroke:#181818;stroke-width:1.0;"/><polygon fill="#181818" points="604.66,202.3,610.1543,206.9704,616.5786,203.695,611.0843,199.0246,604.66,202.3" style="stroke:#181818;stroke-width:1.0;"/></g><!--reverse link ILabelledMultiDiGraph to LabelledMultiDiGraph--><g id="link_ILabelledMultiDiGraph_LabelledMultiDiGraph"><path codeLine="70" d="M953.3839,159.4596 C1012.3139,166.1296 1077.2,173.46 1135.78,180.08 " fill="none" id="ILabelledMultiDiGraph-backto-LabelledMultiDiGraph" style="stroke:#181818;stroke-width:1.0;"/><polygon fill="#181818" points="941.46,158.11,946.9721,162.7594,953.3839,159.4596,947.8718,154.8102,941.46,158.11" style="stroke:#181818;stroke-width:1.0;"/></g><!--reverse link INodeLabelledOpenMultiDiGraphView to NodeLabelledOpenMultiDiGraphView--><g id="link_INodeLabelledOpenMultiDiGraphView_NodeLabelledOpenMultiDiGraphView"><path codeLine="71" d="M614.4467,1089.7834 C659.7767,1079.0434 701.21,1069.23 746.56,1058.49 " fill="none" id="INodeLabelledOpenMultiDiGraphView-backto-NodeLabelledOpenMultiDiGraphView" style="stroke:#181818;stroke-width:1.0;"/><polygon fill="#181818" points="602.77,1092.55,609.5306,1095.059,614.4467,1089.7834,607.6862,1087.2745,602.77,1092.55" style="stroke:#181818;stroke-width:1.0;"/></g><!--reverse link IOutputLabelledMultiDiGraph to OutputLabelledMultiDiGraph--><g id="link_IOutputLabelledMultiDiGraph_OutputLabelledMultiDiGraph"><path codeLine="72" d="M977.48,413 C1023.89,413 1065.43,413 1111.67,413 " fill="none" id="IOutputLabelledMultiDiGraph-backto-OutputLabelledMultiDiGraph" style="stroke:#181818;stroke-width:1.0;"/><polygon fill="#181818" points="965.48,413,971.48,417,977.48,413,971.48,409,965.48,413" style="stroke:#181818;stroke-width:1.0;"/></g><!--reverse link INodeLabelledOpenMultiDiGraph to NodeLabelledOpenMultiDiGraph--><g id="link_INodeLabelledOpenMultiDiGraph_NodeLabelledOpenMultiDiGraph"><path codeLine="73" d="M973.161,1089.9324 C1021.211,1079.1924 1065.8,1069.23 1113.87,1058.49 " fill="none" id="INodeLabelledOpenMultiDiGraph-backto-NodeLabelledOpenMultiDiGraph" style="stroke:#181818;stroke-width:1.0;"/><polygon fill="#181818" points="961.45,1092.55,968.1781,1095.1449,973.161,1089.9324,966.433,1087.3375,961.45,1092.55" style="stroke:#181818;stroke-width:1.0;"/></g><!--reverse link INodeLabelledMultiDiGraphView to NodeLabelledMultiDiGraphView--><g id="link_INodeLabelledMultiDiGraphView_NodeLabelledMultiDiGraphView"><path codeLine="74" d="M227.0254,939.9377 C261.3754,957.8877 299.67,976.4 344.5,993 C360.88,999.06 378.54,1004.64 395.85,1009.6 " fill="none" id="INodeLabelledMultiDiGraphView-backto-NodeLabelledMultiDiGraphView" style="stroke:#181818;stroke-width:1.0;"/><polygon fill="#181818" points="216.39,934.38,219.8552,940.704,227.0254,939.9377,223.5603,933.6137,216.39,934.38" style="stroke:#181818;stroke-width:1.0;"/></g><!--reverse link IOutputLabelledOpenMultiDiGraph to OutputLabelledOpenMultiDiGraph--><g id="link_IOutputLabelledOpenMultiDiGraph_OutputLabelledOpenMultiDiGraph"><path codeLine="75" d="M1369.3258,718.4516 C1387.6858,713.5616 1394.47,710.85 1411.5,704 C1476.86,677.72 1545.27,631.66 1584.21,603.39 " fill="none" id="IOutputLabelledOpenMultiDiGraph-backto-OutputLabelledOpenMultiDiGraph" style="stroke:#181818;stroke-width:1.0;"/><polygon fill="#181818" points="1357.73,721.54,1364.5574,723.861,1369.3258,718.4516,1362.4984,716.1305,1357.73,721.54" style="stroke:#181818;stroke-width:1.0;"/></g><!--reverse link INodeLabelledMultiDiGraph to NodeLabelledMultiDiGraph--><g id="link_INodeLabelledMultiDiGraph_NodeLabelledMultiDiGraph"><path codeLine="76" d="M619.04,951 C662.41,951 700.31,951 743.56,951 " fill="none" id="INodeLabelledMultiDiGraph-backto-NodeLabelledMultiDiGraph" style="stroke:#181818;stroke-width:1.0;"/><polygon fill="#181818" points="607.04,951,613.04,955,619.04,951,613.04,947,607.04,951" style="stroke:#181818;stroke-width:1.0;"/></g><!--reverse link IOutputLabelledOpenMultiDiGraphView to OutputLabelledOpenMultiDiGraphView--><g id="link_IOutputLabelledOpenMultiDiGraphView_OutputLabelledOpenMultiDiGraphView"><path codeLine="77" d="M895.1271,630.8089 C934.8871,602.8589 994.43,564.21 1060,537 C1075.14,530.72 1091.47,525.22 1107.76,520.47 " fill="none" id="IOutputLabelledOpenMultiDiGraphView-backto-OutputLabelledOpenMultiDiGraphView" style="stroke:#181818;stroke-width:1.0;"/><polygon fill="#181818" points="885.31,637.71,892.5189,637.5318,895.1271,630.8089,887.9182,630.9871,885.31,637.71" style="stroke:#181818;stroke-width:1.0;"/></g><!--SRC=[dLNBJiCm43pNN-5pfF85N92GK2MWXmhkJcBQYAY94aSSW7z79HGvhNTsaciyExkpZqdjtu8DZUsg_I7Oikfy4QhcQ4phYdUtz_RHvRwkVMa_hLcvl0-TAu8jQjVtTdD-V1hgKDrN3vrh3npgjV8VPZK2qYpo6uZT3Vd-3B7c-rh6pNDJUgWf1c1T4dAi3w6thJ-cr49GB5ik4hyh777xKZ2fRhRibsFJbRxp9Gf8psqxX7O8S79J29wTZ4rFRug_xiCyVDmJLBM6a7caIIsjAqAcbkH_iBeQ0IeLVCeIVx_hft4nRlfoYJnb-DqjqP3ixTTwBRYQ4eGEIJIAltoWPz1ZGBauRnGi6idSuEGgCIJATXCKcf71EaSAofYCAfZe2qr2N2hetOKij69u0CIECWJg6IjwePxh7klDexhC4t5kITDnRcPcUTAeI3ydyHGNNIARLVKIdK9n4kxkuEro5CJbCYS3Jcv-E575Ka6g0MJwR3OmU5wO649ORyPi8h9Th5Nv5MdPbPzX1YwGiPz4yNm5C3jbV1crj3y0]--></g></svg>