<?xml version="1.0" encoding="us-ascii" standalone="no"?><svg xmlns="http://www.w3.org/2000/svg" xmlns:xlink="http://www.w3.org/1999/xlink" contentStyleType="text/css" height="776px" preserveAspectRatio="none" style="width:1231px;height:776px;background:#FFFFFF;" version="1.1" viewBox="0 0 1231 776" width="1231px" zoomAndPan="magnify"><defs/><g><!--cluster Open--><g id="cluster_Open"><path d="M8.5,6 L51.5,6 A3.75,3.75 0 0 1 54,8.5 L61,28.2969 L1221.5,28.2969 A2.5,2.5 0 0 1 1224,30.7969 L1224,766.5 A2.5,2.5 0 0 1 1221.5,769 L8.5,769 A2.5,2.5 0 0 1 6,766.5 L6,8.5 A2.5,2.5 0 0 1 8.5,6 " fill="none" style="stroke:#000000;stroke-width:1.5;"/><line style="stroke:#000000;stroke-width:1.5;" x1="6" x2="61" y1="28.2969" y2="28.2969"/><text fill="#000000" font-family="sans-serif" font-size="14" font-weight="bold" lengthAdjust="spacing" textLength="42" x="10" y="20.9951">Open</text></g><!--cluster Downward--><g id="cluster_Downward"><path d="M265,255 L351,255 A3.75,3.75 0 0 1 353.5,257.5 L360.5,277.2969 L1197.5,277.2969 A2.5,2.5 0 0 1 1200,279.7969 L1200,434.5 A2.5,2.5 0 0 1 1197.5,437 L265,437 A2.5,2.5 0 0 1 262.5,434.5 L262.5,257.5 A2.5,2.5 0 0 1 265,255 " fill="none" style="stroke:#000000;stroke-width:1.5;"/><line style="stroke:#000000;stroke-width:1.5;" x1="262.5" x2="360.5" y1="277.2969" y2="277.2969"/><text fill="#000000" font-family="sans-serif" font-size="14" font-weight="bold" lengthAdjust="spacing" textLength="85" x="266.5" y="269.9951">Downward</text></g><!--cluster Upward--><g id="cluster_Upward"><path d="M275.5,49 L337.5,49 A3.75,3.75 0 0 1 340,51.5 L347,71.2969 L1187,71.2969 A2.5,2.5 0 0 1 1189.5,73.7969 L1189.5,228.5 A2.5,2.5 0 0 1 1187,231 L275.5,231 A2.5,2.5 0 0 1 273,228.5 L273,51.5 A2.5,2.5 0 0 1 275.5,49 " fill="none" style="stroke:#000000;stroke-width:1.5;"/><line style="stroke:#000000;stroke-width:1.5;" x1="273" x2="347" y1="71.2969" y2="71.2969"/><text fill="#000000" font-family="sans-serif" font-size="14" font-weight="bold" lengthAdjust="spacing" textLength="61" x="277" y="63.9951">Upward</text></g><!--class AdjacencyOpenMultiDiGraph--><g id="elem_AdjacencyOpenMultiDiGraph"><rect codeLine="4" fill="#F1F1F1" height="48" id="AdjacencyOpenMultiDiGraph" rx="2.5" ry="2.5" style="stroke:#181818;stroke-width:0.5;" width="228" x="647.5" y="705"/><ellipse cx="662.5" cy="721" fill="#ADD1B2" rx="11" ry="11" style="stroke:#181818;stroke-width:1.0;"/><path d="M665.4688,726.6406 Q664.8906,726.9375 664.25,727.0781 Q663.6094,727.2344 662.9063,727.2344 Q660.4063,727.2344 659.0781,725.5938 Q657.7656,723.9375 657.7656,720.8125 Q657.7656,717.6875 659.0781,716.0313 Q660.4063,714.375 662.9063,714.375 Q663.6094,714.375 664.25,714.5313 Q664.9063,714.6875 665.4688,714.9844 L665.4688,717.7031 Q664.8438,717.125 664.25,716.8594 Q663.6563,716.5781 663.0313,716.5781 Q661.6875,716.5781 661,717.6563 Q660.3125,718.7188 660.3125,720.8125 Q660.3125,722.9063 661,723.9844 Q661.6875,725.0469 663.0313,725.0469 Q663.6563,725.0469 664.25,724.7813 Q664.8438,724.5 665.4688,723.9219 L665.4688,726.6406 Z " fill="#000000"/><text fill="#000000" font-family="sans-serif" font-size="14" lengthAdjust="spacing" textLength="196" x="676.5" y="725.8467">AdjacencyOpenMultiDiGraph</text><line style="stroke:#181818;stroke-width:0.5;" x1="648.5" x2="874.5" y1="737" y2="737"/><line style="stroke:#181818;stroke-width:0.5;" x1="648.5" x2="874.5" y1="745" y2="745"/></g><!--class IOpenMultiDiGraph--><g id="elem_IOpenMultiDiGraph"><rect codeLine="5" fill="#F1F1F1" height="48" id="IOpenMultiDiGraph" rx="2.5" ry="2.5" style="stroke:#181818;stroke-width:0.5;" width="161" x="342" y="705"/><ellipse cx="357" cy="721" fill="#A9DCDF" rx="11" ry="11" style="stroke:#181818;stroke-width:1.0;"/><path d="M357.1094,716.3438 L355.9531,721.4219 L358.2813,721.4219 L357.1094,716.3438 Z M355.625,714.1094 L358.6094,714.1094 L361.9688,726.5 L359.5156,726.5 L358.75,723.4375 L355.4688,723.4375 L354.7188,726.5 L352.2813,726.5 L355.625,714.1094 Z " fill="#000000"/><text fill="#000000" font-family="sans-serif" font-size="14" font-style="italic" lengthAdjust="spacing" textLength="129" x="371" y="725.8467">IOpenMultiDiGraph</text><line style="stroke:#181818;stroke-width:0.5;" x1="343" x2="502" y1="737" y2="737"/><line style="stroke:#181818;stroke-width:0.5;" x1="343" x2="502" y1="745" y2="745"/></g><!--class IOpenMultiDiGraphView--><g id="elem_IOpenMultiDiGraphView"><rect codeLine="6" fill="#F1F1F1" height="48" id="IOpenMultiDiGraphView" rx="2.5" ry="2.5" style="stroke:#181818;stroke-width:0.5;" width="193" x="22" y="415"/><ellipse cx="37" cy="431" fill="#A9DCDF" rx="11" ry="11" style="stroke:#181818;stroke-width:1.0;"/><path d="M37.1094,426.3438 L35.9531,431.4219 L38.2813,431.4219 L37.1094,426.3438 Z M35.625,424.1094 L38.6094,424.1094 L41.9688,436.5 L39.5156,436.5 L38.75,433.4375 L35.4688,433.4375 L34.7188,436.5 L32.2813,436.5 L35.625,424.1094 Z " fill="#000000"/><text fill="#000000" font-family="sans-serif" font-size="14" font-style="italic" lengthAdjust="spacing" textLength="161" x="51" y="435.8467">IOpenMultiDiGraphView</text><line style="stroke:#181818;stroke-width:0.5;" x1="23" x2="214" y1="447" y2="447"/><line style="stroke:#181818;stroke-width:0.5;" x1="23" x2="214" y1="455" y2="455"/></g><!--class OpenMultiDiGraph--><g id="elem_OpenMultiDiGraph"><rect codeLine="7" fill="#F1F1F1" height="48" id="OpenMultiDiGraph" rx="2.5" ry="2.5" style="stroke:#181818;stroke-width:0.5;" width="158" x="682.5" y="622"/><ellipse cx="697.5" cy="638" fill="#ADD1B2" rx="11" ry="11" style="stroke:#181818;stroke-width:1.0;"/><path d="M700.4688,643.6406 Q699.8906,643.9375 699.25,644.0781 Q698.6094,644.2344 697.9063,644.2344 Q695.4063,644.2344 694.0781,642.5938 Q692.7656,640.9375 692.7656,637.8125 Q692.7656,634.6875 694.0781,633.0313 Q695.4063,631.375 697.9063,631.375 Q698.6094,631.375 699.25,631.5313 Q699.9063,631.6875 700.4688,631.9844 L700.4688,634.7031 Q699.8438,634.125 699.25,633.8594 Q698.6563,633.5781 698.0313,633.5781 Q696.6875,633.5781 696,634.6563 Q695.3125,635.7188 695.3125,637.8125 Q695.3125,639.9063 696,640.9844 Q696.6875,642.0469 698.0313,642.0469 Q698.6563,642.0469 699.25,641.7813 Q699.8438,641.5 700.4688,640.9219 L700.4688,643.6406 Z " fill="#000000"/><text fill="#000000" font-family="sans-serif" font-size="14" lengthAdjust="spacing" textLength="126" x="711.5" y="642.8467">OpenMultiDiGraph</text><line style="stroke:#181818;stroke-width:0.5;" x1="683.5" x2="839.5" y1="654" y2="654"/><line style="stroke:#181818;stroke-width:0.5;" x1="683.5" x2="839.5" y1="662" y2="662"/></g><!--class OpenMultiDiGraphView--><g id="elem_OpenMultiDiGraphView"><rect codeLine="8" fill="#F1F1F1" height="48" id="OpenMultiDiGraphView" rx="2.5" ry="2.5" style="stroke:#181818;stroke-width:0.5;" width="190" x="327.5" y="622"/><ellipse cx="342.5" cy="638" fill="#ADD1B2" rx="11" ry="11" style="stroke:#181818;stroke-width:1.0;"/><path d="M345.4688,643.6406 Q344.8906,643.9375 344.25,644.0781 Q343.6094,644.2344 342.9063,644.2344 Q340.4063,644.2344 339.0781,642.5938 Q337.7656,640.9375 337.7656,637.8125 Q337.7656,634.6875 339.0781,633.0313 Q340.4063,631.375 342.9063,631.375 Q343.6094,631.375 344.25,631.5313 Q344.9063,631.6875 345.4688,631.9844 L345.4688,634.7031 Q344.8438,634.125 344.25,633.8594 Q343.6563,633.5781 343.0313,633.5781 Q341.6875,633.5781 341,634.6563 Q340.3125,635.7188 340.3125,637.8125 Q340.3125,639.9063 341,640.9844 Q341.6875,642.0469 343.0313,642.0469 Q343.6563,642.0469 344.25,641.7813 Q344.8438,641.5 345.4688,640.9219 L345.4688,643.6406 Z " fill="#000000"/><text fill="#000000" font-family="sans-serif" font-size="14" lengthAdjust="spacing" textLength="158" x="356.5" y="642.8467">OpenMultiDiGraphView</text><line style="stroke:#181818;stroke-width:0.5;" x1="328.5" x2="516.5" y1="654" y2="654"/><line style="stroke:#181818;stroke-width:0.5;" x1="328.5" x2="516.5" y1="662" y2="662"/></g><!--class OpenMultiDiSubgraphView--><g id="elem_OpenMultiDiSubgraphView"><rect codeLine="9" fill="#F1F1F1" height="48" id="OpenMultiDiSubgraphView" rx="2.5" ry="2.5" style="stroke:#181818;stroke-width:0.5;" width="215" x="315" y="539"/><ellipse cx="330" cy="555" fill="#ADD1B2" rx="11" ry="11" style="stroke:#181818;stroke-width:1.0;"/><path d="M332.9688,560.6406 Q332.3906,560.9375 331.75,561.0781 Q331.1094,561.2344 330.4063,561.2344 Q327.9063,561.2344 326.5781,559.5938 Q325.2656,557.9375 325.2656,554.8125 Q325.2656,551.6875 326.5781,550.0313 Q327.9063,548.375 330.4063,548.375 Q331.1094,548.375 331.75,548.5313 Q332.4063,548.6875 332.9688,548.9844 L332.9688,551.7031 Q332.3438,551.125 331.75,550.8594 Q331.1563,550.5781 330.5313,550.5781 Q329.1875,550.5781 328.5,551.6563 Q327.8125,552.7188 327.8125,554.8125 Q327.8125,556.9063 328.5,557.9844 Q329.1875,559.0469 330.5313,559.0469 Q331.1563,559.0469 331.75,558.7813 Q332.3438,558.5 332.9688,557.9219 L332.9688,560.6406 Z " fill="#000000"/><text fill="#000000" font-family="sans-serif" font-size="14" lengthAdjust="spacing" textLength="183" x="344" y="559.8467">OpenMultiDiSubgraphView</text><line style="stroke:#181818;stroke-width:0.5;" x1="316" x2="529" y1="571" y2="571"/><line style="stroke:#181818;stroke-width:0.5;" x1="316" x2="529" y1="579" y2="579"/></g><!--class ViewMultiDiGraphAsOpenMultiDiGraph--><g id="elem_ViewMultiDiGraphAsOpenMultiDiGraph"><rect codeLine="10" fill="#F1F1F1" height="48" id="ViewMultiDiGraphAsOpenMultiDiGraph" rx="2.5" ry="2.5" style="stroke:#181818;stroke-width:0.5;" width="295" x="275" y="456"/><ellipse cx="290" cy="472" fill="#ADD1B2" rx="11" ry="11" style="stroke:#181818;stroke-width:1.0;"/><path d="M292.9688,477.6406 Q292.3906,477.9375 291.75,478.0781 Q291.1094,478.2344 290.4063,478.2344 Q287.9063,478.2344 286.5781,476.5938 Q285.2656,474.9375 285.2656,471.8125 Q285.2656,468.6875 286.5781,467.0313 Q287.9063,465.375 290.4063,465.375 Q291.1094,465.375 291.75,465.5313 Q292.4063,465.6875 292.9688,465.9844 L292.9688,468.7031 Q292.3438,468.125 291.75,467.8594 Q291.1563,467.5781 290.5313,467.5781 Q289.1875,467.5781 288.5,468.6563 Q287.8125,469.7188 287.8125,471.8125 Q287.8125,473.9063 288.5,474.9844 Q289.1875,476.0469 290.5313,476.0469 Q291.1563,476.0469 291.75,475.7813 Q292.3438,475.5 292.9688,474.9219 L292.9688,477.6406 Z " fill="#000000"/><text fill="#000000" font-family="sans-serif" font-size="14" lengthAdjust="spacing" textLength="263" x="304" y="476.8467">ViewMultiDiGraphAsOpenMultiDiGraph</text><line style="stroke:#181818;stroke-width:0.5;" x1="276" x2="569" y1="488" y2="488"/><line style="stroke:#181818;stroke-width:0.5;" x1="276" x2="569" y1="496" y2="496"/></g><!--class DownwardOpenMultiDiGraph--><g id="elem_DownwardOpenMultiDiGraph"><rect codeLine="14" fill="#F1F1F1" height="48" id="DownwardOpenMultiDiGraph" rx="2.5" ry="2.5" style="stroke:#181818;stroke-width:0.5;" width="231" x="953" y="332"/><ellipse cx="968" cy="348" fill="#ADD1B2" rx="11" ry="11" style="stroke:#181818;stroke-width:1.0;"/><path d="M970.9688,353.6406 Q970.3906,353.9375 969.75,354.0781 Q969.1094,354.2344 968.4063,354.2344 Q965.9063,354.2344 964.5781,352.5938 Q963.2656,350.9375 963.2656,347.8125 Q963.2656,344.6875 964.5781,343.0313 Q965.9063,341.375 968.4063,341.375 Q969.1094,341.375 969.75,341.5313 Q970.4063,341.6875 970.9688,341.9844 L970.9688,344.7031 Q970.3438,344.125 969.75,343.8594 Q969.1563,343.5781 968.5313,343.5781 Q967.1875,343.5781 966.5,344.6563 Q965.8125,345.7188 965.8125,347.8125 Q965.8125,349.9063 966.5,350.9844 Q967.1875,352.0469 968.5313,352.0469 Q969.1563,352.0469 969.75,351.7813 Q970.3438,351.5 970.9688,350.9219 L970.9688,353.6406 Z " fill="#000000"/><text fill="#000000" font-family="sans-serif" font-size="14" lengthAdjust="spacing" textLength="199" x="982" y="352.8467">DownwardOpenMultiDiGraph</text><line style="stroke:#181818;stroke-width:0.5;" x1="954" x2="1183" y1="364" y2="364"/><line style="stroke:#181818;stroke-width:0.5;" x1="954" x2="1183" y1="372" y2="372"/></g><!--class DownwardOpenMultiDiGraphView--><g id="elem_DownwardOpenMultiDiGraphView"><rect codeLine="15" fill="#F1F1F1" height="48" id="DownwardOpenMultiDiGraphView" rx="2.5" ry="2.5" style="stroke:#181818;stroke-width:0.5;" width="263" x="630" y="373"/><ellipse cx="645" cy="389" fill="#ADD1B2" rx="11" ry="11" style="stroke:#181818;stroke-width:1.0;"/><path d="M647.9688,394.6406 Q647.3906,394.9375 646.75,395.0781 Q646.1094,395.2344 645.4063,395.2344 Q642.9063,395.2344 641.5781,393.5938 Q640.2656,391.9375 640.2656,388.8125 Q640.2656,385.6875 641.5781,384.0313 Q642.9063,382.375 645.4063,382.375 Q646.1094,382.375 646.75,382.5313 Q647.4063,382.6875 647.9688,382.9844 L647.9688,385.7031 Q647.3438,385.125 646.75,384.8594 Q646.1563,384.5781 645.5313,384.5781 Q644.1875,384.5781 643.5,385.6563 Q642.8125,386.7188 642.8125,388.8125 Q642.8125,390.9063 643.5,391.9844 Q644.1875,393.0469 645.5313,393.0469 Q646.1563,393.0469 646.75,392.7813 Q647.3438,392.5 647.9688,391.9219 L647.9688,394.6406 Z " fill="#000000"/><text fill="#000000" font-family="sans-serif" font-size="14" lengthAdjust="spacing" textLength="231" x="659" y="393.8467">DownwardOpenMultiDiGraphView</text><line style="stroke:#181818;stroke-width:0.5;" x1="631" x2="892" y1="405" y2="405"/><line style="stroke:#181818;stroke-width:0.5;" x1="631" x2="892" y1="413" y2="413"/></g><!--class DownwardOpenMultiDiSubgraphView--><g id="elem_DownwardOpenMultiDiSubgraphView"><rect codeLine="16" fill="#F1F1F1" height="48" id="DownwardOpenMultiDiSubgraphView" rx="2.5" ry="2.5" style="stroke:#181818;stroke-width:0.5;" width="288" x="278.5" y="373"/><ellipse cx="293.5" cy="389" fill="#ADD1B2" rx="11" ry="11" style="stroke:#181818;stroke-width:1.0;"/><path d="M296.4688,394.6406 Q295.8906,394.9375 295.25,395.0781 Q294.6094,395.2344 293.9063,395.2344 Q291.4063,395.2344 290.0781,393.5938 Q288.7656,391.9375 288.7656,388.8125 Q288.7656,385.6875 290.0781,384.0313 Q291.4063,382.375 293.9063,382.375 Q294.6094,382.375 295.25,382.5313 Q295.9063,382.6875 296.4688,382.9844 L296.4688,385.7031 Q295.8438,385.125 295.25,384.8594 Q294.6563,384.5781 294.0313,384.5781 Q292.6875,384.5781 292,385.6563 Q291.3125,386.7188 291.3125,388.8125 Q291.3125,390.9063 292,391.9844 Q292.6875,393.0469 294.0313,393.0469 Q294.6563,393.0469 295.25,392.7813 Q295.8438,392.5 296.4688,391.9219 L296.4688,394.6406 Z " fill="#000000"/><text fill="#000000" font-family="sans-serif" font-size="14" lengthAdjust="spacing" textLength="256" x="307.5" y="393.8467">DownwardOpenMultiDiSubgraphView</text><line style="stroke:#181818;stroke-width:0.5;" x1="279.5" x2="565.5" y1="405" y2="405"/><line style="stroke:#181818;stroke-width:0.5;" x1="279.5" x2="565.5" y1="413" y2="413"/></g><!--class IDownwardOpenMultiDiGraph--><g id="elem_IDownwardOpenMultiDiGraph"><rect codeLine="17" fill="#F1F1F1" height="48" id="IDownwardOpenMultiDiGraph" rx="2.5" ry="2.5" style="stroke:#181818;stroke-width:0.5;" width="234" x="644.5" y="290"/><ellipse cx="659.5" cy="306" fill="#A9DCDF" rx="11" ry="11" style="stroke:#181818;stroke-width:1.0;"/><path d="M659.6094,301.3438 L658.4531,306.4219 L660.7813,306.4219 L659.6094,301.3438 Z M658.125,299.1094 L661.1094,299.1094 L664.4688,311.5 L662.0156,311.5 L661.25,308.4375 L657.9688,308.4375 L657.2188,311.5 L654.7813,311.5 L658.125,299.1094 Z " fill="#000000"/><text fill="#000000" font-family="sans-serif" font-size="14" font-style="italic" lengthAdjust="spacing" textLength="202" x="673.5" y="310.8467">IDownwardOpenMultiDiGraph</text><line style="stroke:#181818;stroke-width:0.5;" x1="645.5" x2="877.5" y1="322" y2="322"/><line style="stroke:#181818;stroke-width:0.5;" x1="645.5" x2="877.5" y1="330" y2="330"/></g><!--class IDownwardOpenMultiDiGraphView--><g id="elem_IDownwardOpenMultiDiGraphView"><rect codeLine="18" fill="#F1F1F1" height="48" id="IDownwardOpenMultiDiGraphView" rx="2.5" ry="2.5" style="stroke:#181818;stroke-width:0.5;" width="266" x="289.5" y="290"/><ellipse cx="304.5" cy="306" fill="#A9DCDF" rx="11" ry="11" style="stroke:#181818;stroke-width:1.0;"/><path d="M304.6094,301.3438 L303.4531,306.4219 L305.7813,306.4219 L304.6094,301.3438 Z M303.125,299.1094 L306.1094,299.1094 L309.4688,311.5 L307.0156,311.5 L306.25,308.4375 L302.9688,308.4375 L302.2188,311.5 L299.7813,311.5 L303.125,299.1094 Z " fill="#000000"/><text fill="#000000" font-family="sans-serif" font-size="14" font-style="italic" lengthAdjust="spacing" textLength="234" x="318.5" y="310.8467">IDownwardOpenMultiDiGraphView</text><line style="stroke:#181818;stroke-width:0.5;" x1="290.5" x2="554.5" y1="322" y2="322"/><line style="stroke:#181818;stroke-width:0.5;" x1="290.5" x2="554.5" y1="330" y2="330"/></g><!--class IUpwardOpenMultiDiGraph--><g id="elem_IUpwardOpenMultiDiGraph"><rect codeLine="22" fill="#F1F1F1" height="48" id="IUpwardOpenMultiDiGraph" rx="2.5" ry="2.5" style="stroke:#181818;stroke-width:0.5;" width="213" x="655" y="167"/><ellipse cx="670" cy="183" fill="#A9DCDF" rx="11" ry="11" style="stroke:#181818;stroke-width:1.0;"/><path d="M670.1094,178.3438 L668.9531,183.4219 L671.2813,183.4219 L670.1094,178.3438 Z M668.625,176.1094 L671.6094,176.1094 L674.9688,188.5 L672.5156,188.5 L671.75,185.4375 L668.4688,185.4375 L667.7188,188.5 L665.2813,188.5 L668.625,176.1094 Z " fill="#000000"/><text fill="#000000" font-family="sans-serif" font-size="14" font-style="italic" lengthAdjust="spacing" textLength="181" x="684" y="187.8467">IUpwardOpenMultiDiGraph</text><line style="stroke:#181818;stroke-width:0.5;" x1="656" x2="867" y1="199" y2="199"/><line style="stroke:#181818;stroke-width:0.5;" x1="656" x2="867" y1="207" y2="207"/></g><!--class IUpwardOpenMultiDiGraphView--><g id="elem_IUpwardOpenMultiDiGraphView"><rect codeLine="23" fill="#F1F1F1" height="48" id="IUpwardOpenMultiDiGraphView" rx="2.5" ry="2.5" style="stroke:#181818;stroke-width:0.5;" width="245" x="300" y="167"/><ellipse cx="315" cy="183" fill="#A9DCDF" rx="11" ry="11" style="stroke:#181818;stroke-width:1.0;"/><path d="M315.1094,178.3438 L313.9531,183.4219 L316.2813,183.4219 L315.1094,178.3438 Z M313.625,176.1094 L316.6094,176.1094 L319.9688,188.5 L317.5156,188.5 L316.75,185.4375 L313.4688,185.4375 L312.7188,188.5 L310.2813,188.5 L313.625,176.1094 Z " fill="#000000"/><text fill="#000000" font-family="sans-serif" font-size="14" font-style="italic" lengthAdjust="spacing" textLength="213" x="329" y="187.8467">IUpwardOpenMultiDiGraphView</text><line style="stroke:#181818;stroke-width:0.5;" x1="301" x2="544" y1="199" y2="199"/><line style="stroke:#181818;stroke-width:0.5;" x1="301" x2="544" y1="207" y2="207"/></g><!--class UpwardOpenMultiDiGraph--><g id="elem_UpwardOpenMultiDiGraph"><rect codeLine="24" fill="#F1F1F1" height="48" id="UpwardOpenMultiDiGraph" rx="2.5" ry="2.5" style="stroke:#181818;stroke-width:0.5;" width="210" x="963.5" y="126"/><ellipse cx="978.5" cy="142" fill="#ADD1B2" rx="11" ry="11" style="stroke:#181818;stroke-width:1.0;"/><path d="M981.4688,147.6406 Q980.8906,147.9375 980.25,148.0781 Q979.6094,148.2344 978.9063,148.2344 Q976.4063,148.2344 975.0781,146.5938 Q973.7656,144.9375 973.7656,141.8125 Q973.7656,138.6875 975.0781,137.0313 Q976.4063,135.375 978.9063,135.375 Q979.6094,135.375 980.25,135.5313 Q980.9063,135.6875 981.4688,135.9844 L981.4688,138.7031 Q980.8438,138.125 980.25,137.8594 Q979.6563,137.5781 979.0313,137.5781 Q977.6875,137.5781 977,138.6563 Q976.3125,139.7188 976.3125,141.8125 Q976.3125,143.9063 977,144.9844 Q977.6875,146.0469 979.0313,146.0469 Q979.6563,146.0469 980.25,145.7813 Q980.8438,145.5 981.4688,144.9219 L981.4688,147.6406 Z " fill="#000000"/><text fill="#000000" font-family="sans-serif" font-size="14" lengthAdjust="spacing" textLength="178" x="992.5" y="146.8467">UpwardOpenMultiDiGraph</text><line style="stroke:#181818;stroke-width:0.5;" x1="964.5" x2="1172.5" y1="158" y2="158"/><line style="stroke:#181818;stroke-width:0.5;" x1="964.5" x2="1172.5" y1="166" y2="166"/></g><!--class UpwardOpenMultiDiGraphView--><g id="elem_UpwardOpenMultiDiGraphView"><rect codeLine="25" fill="#F1F1F1" height="48" id="UpwardOpenMultiDiGraphView" rx="2.5" ry="2.5" style="stroke:#181818;stroke-width:0.5;" width="242" x="640.5" y="84"/><ellipse cx="655.5" cy="100" fill="#ADD1B2" rx="11" ry="11" style="stroke:#181818;stroke-width:1.0;"/><path d="M658.4688,105.6406 Q657.8906,105.9375 657.25,106.0781 Q656.6094,106.2344 655.9063,106.2344 Q653.4063,106.2344 652.0781,104.5938 Q650.7656,102.9375 650.7656,99.8125 Q650.7656,96.6875 652.0781,95.0313 Q653.4063,93.375 655.9063,93.375 Q656.6094,93.375 657.25,93.5313 Q657.9063,93.6875 658.4688,93.9844 L658.4688,96.7031 Q657.8438,96.125 657.25,95.8594 Q656.6563,95.5781 656.0313,95.5781 Q654.6875,95.5781 654,96.6563 Q653.3125,97.7188 653.3125,99.8125 Q653.3125,101.9063 654,102.9844 Q654.6875,104.0469 656.0313,104.0469 Q656.6563,104.0469 657.25,103.7813 Q657.8438,103.5 658.4688,102.9219 L658.4688,105.6406 Z " fill="#000000"/><text fill="#000000" font-family="sans-serif" font-size="14" lengthAdjust="spacing" textLength="210" x="669.5" y="104.8467">UpwardOpenMultiDiGraphView</text><line style="stroke:#181818;stroke-width:0.5;" x1="641.5" x2="881.5" y1="116" y2="116"/><line style="stroke:#181818;stroke-width:0.5;" x1="641.5" x2="881.5" y1="124" y2="124"/></g><!--class UpwardOpenMultiDiSubgraphView--><g id="elem_UpwardOpenMultiDiSubgraphView"><rect codeLine="26" fill="#F1F1F1" height="48" id="UpwardOpenMultiDiSubgraphView" rx="2.5" ry="2.5" style="stroke:#181818;stroke-width:0.5;" width="267" x="289" y="84"/><ellipse cx="304" cy="100" fill="#ADD1B2" rx="11" ry="11" style="stroke:#181818;stroke-width:1.0;"/><path d="M306.9688,105.6406 Q306.3906,105.9375 305.75,106.0781 Q305.1094,106.2344 304.4063,106.2344 Q301.9063,106.2344 300.5781,104.5938 Q299.2656,102.9375 299.2656,99.8125 Q299.2656,96.6875 300.5781,95.0313 Q301.9063,93.375 304.4063,93.375 Q305.1094,93.375 305.75,93.5313 Q306.4063,93.6875 306.9688,93.9844 L306.9688,96.7031 Q306.3438,96.125 305.75,95.8594 Q305.1563,95.5781 304.5313,95.5781 Q303.1875,95.5781 302.5,96.6563 Q301.8125,97.7188 301.8125,99.8125 Q301.8125,101.9063 302.5,102.9844 Q303.1875,104.0469 304.5313,104.0469 Q305.1563,104.0469 305.75,103.7813 Q306.3438,103.5 306.9688,102.9219 L306.9688,105.6406 Z " fill="#000000"/><text fill="#000000" font-family="sans-serif" font-size="14" lengthAdjust="spacing" textLength="235" x="318" y="104.8467">UpwardOpenMultiDiSubgraphView</text><line style="stroke:#181818;stroke-width:0.5;" x1="290" x2="555" y1="116" y2="116"/><line style="stroke:#181818;stroke-width:0.5;" x1="290" x2="555" y1="124" y2="124"/></g><!--reverse link DownwardOpenMultiDiGraphView to DownwardOpenMultiDiGraph--><g id="link_DownwardOpenMultiDiGraphView_DownwardOpenMultiDiGraph"><path codeLine="29" d="M911.01,377.0352 C930.9,374.3652 933.45,374.02 952.96,371.4 " fill="none" id="DownwardOpenMultiDiGraphView-backto-DownwardOpenMultiDiGraph" style="stroke:#181818;stroke-width:1.0;"/><polygon fill="none" points="893.17,379.43,911.8082,382.9819,910.2117,371.0885,893.17,379.43" style="stroke:#181818;stroke-width:1.0;"/></g><!--reverse link IDownwardOpenMultiDiGraphView to IDownwardOpenMultiDiGraph--><g id="link_IDownwardOpenMultiDiGraphView_IDownwardOpenMultiDiGraph"><path codeLine="30" d="M573.72,314 C602.95,314 615.71,314 644.24,314 " fill="none" id="IDownwardOpenMultiDiGraphView-backto-IDownwardOpenMultiDiGraph" style="stroke:#181818;stroke-width:1.0;"/><polygon fill="none" points="555.72,314,573.72,320,573.72,308,555.72,314" style="stroke:#181818;stroke-width:1.0;"/></g><!--reverse link IOpenMultiDiGraph to AdjacencyOpenMultiDiGraph--><g id="link_IOpenMultiDiGraph_AdjacencyOpenMultiDiGraph"><path codeLine="31" d="M521.36,729 C564.28,729 599.93,729 647.1,729 " fill="none" id="IOpenMultiDiGraph-backto-AdjacencyOpenMultiDiGraph" style="stroke:#181818;stroke-width:1.0;"/><polygon fill="none" points="503.36,729,521.36,735,521.36,723,503.36,729" style="stroke:#181818;stroke-width:1.0;"/></g><!--reverse link IOpenMultiDiGraphView to DownwardOpenMultiDiSubgraphView--><g id="link_IOpenMultiDiGraphView_DownwardOpenMultiDiSubgraphView"><path codeLine="32" d="M233.299,423.1745 C253.249,420.4045 256.85,419.9 278.08,416.95 " fill="none" id="IOpenMultiDiGraphView-backto-DownwardOpenMultiDiSubgraphView" style="stroke:#181818;stroke-width:1.0;"/><polygon fill="none" points="215.47,425.65,234.1241,429.1175,232.4738,417.2315,215.47,425.65" style="stroke:#181818;stroke-width:1.0;"/></g><!--reverse link IOpenMultiDiGraphView to IDownwardOpenMultiDiGraphView--><g id="link_IOpenMultiDiGraphView_IDownwardOpenMultiDiGraphView"><path codeLine="33" d="M166.6932,404.2483 C193.0932,385.5283 217.23,370.7 254.5,355 C269.49,348.68 285.67,343.2 301.85,338.48 " fill="none" id="IOpenMultiDiGraphView-backto-IDownwardOpenMultiDiGraphView" style="stroke:#181818;stroke-width:1.0;"/><polygon fill="none" points="152.01,414.66,170.1638,409.1427,163.2226,399.3539,152.01,414.66" style="stroke:#181818;stroke-width:1.0;"/></g><!--reverse link IOpenMultiDiGraphView to IOpenMultiDiGraph--><g id="link_IOpenMultiDiGraphView_IOpenMultiDiGraph"><path codeLine="34" d="M130.2434,480.511 C143.9634,530.621 177.82,628.81 254.5,688 C279.31,707.15 311.87,717.49 341.64,723.03 " fill="none" id="IOpenMultiDiGraphView-backto-IOpenMultiDiGraph" style="stroke:#181818;stroke-width:1.0;"/><polygon fill="none" points="125.49,463.15,124.4564,482.0955,136.0304,478.9266,125.49,463.15" style="stroke:#181818;stroke-width:1.0;"/></g><!--reverse link IOpenMultiDiGraphView to IUpwardOpenMultiDiGraphView--><g id="link_IOpenMultiDiGraphView_IUpwardOpenMultiDiGraphView"><path codeLine="35" d="M144.3283,399.5876 C166.8583,364.7676 202.56,315.42 254.5,274 C285.26,249.47 324.44,229.53 357.11,215.35 " fill="none" id="IOpenMultiDiGraphView-backto-IUpwardOpenMultiDiGraphView" style="stroke:#181818;stroke-width:1.0;"/><polygon fill="none" points="134.55,414.7,149.3658,402.8471,139.2909,396.3282,134.55,414.7" style="stroke:#181818;stroke-width:1.0;"/></g><!--reverse link IOpenMultiDiGraphView to OpenMultiDiSubgraphView--><g id="link_IOpenMultiDiGraphView_OpenMultiDiSubgraphView"><path codeLine="36" d="M167.3559,473.7184 C193.7659,492.1684 217.57,506.56 254.5,522 C273.51,529.95 294.4,536.59 314.78,542.05 " fill="none" id="IOpenMultiDiGraphView-backto-OpenMultiDiSubgraphView" style="stroke:#181818;stroke-width:1.0;"/><polygon fill="none" points="152.6,463.41,163.9197,478.6371,170.792,468.7998,152.6,463.41" style="stroke:#181818;stroke-width:1.0;"/></g><!--reverse link IOpenMultiDiGraphView to UpwardOpenMultiDiSubgraphView--><g id="link_IOpenMultiDiGraphView_UpwardOpenMultiDiSubgraphView"><path codeLine="37" d="M126.8376,397.1421 C137.3876,341.2321 168.05,220.05 254.5,149 C264.76,140.56 276.5,133.82 288.9,128.44 " fill="none" id="IOpenMultiDiGraphView-backto-UpwardOpenMultiDiSubgraphView" style="stroke:#181818;stroke-width:1.0;"/><polygon fill="none" points="123.5,414.83,132.7336,398.2547,120.9417,396.0296,123.5,414.83" style="stroke:#181818;stroke-width:1.0;"/></g><!--reverse link IOpenMultiDiGraphView to ViewMultiDiGraphAsOpenMultiDiGraph--><g id="link_IOpenMultiDiGraphView_ViewMultiDiGraphAsOpenMultiDiGraph"><path codeLine="38" d="M233.306,454.454 C252.216,457.024 254.63,457.35 274.77,460.08 " fill="none" id="IOpenMultiDiGraphView-backto-ViewMultiDiGraphAsOpenMultiDiGraph" style="stroke:#181818;stroke-width:1.0;"/><polygon fill="none" points="215.47,452.03,232.498,460.3994,234.114,448.5087,215.47,452.03" style="stroke:#181818;stroke-width:1.0;"/></g><!--reverse link IUpwardOpenMultiDiGraphView to IUpwardOpenMultiDiGraph--><g id="link_IUpwardOpenMultiDiGraphView_IUpwardOpenMultiDiGraph"><path codeLine="39" d="M563.16,191 C598.99,191 619.88,191 654.62,191 " fill="none" id="IUpwardOpenMultiDiGraphView-backto-IUpwardOpenMultiDiGraph" style="stroke:#181818;stroke-width:1.0;"/><polygon fill="none" points="545.16,191,563.16,197,563.16,185,545.16,191" style="stroke:#181818;stroke-width:1.0;"/></g><!--reverse link OpenMultiDiGraphView to OpenMultiDiGraph--><g id="link_OpenMultiDiGraphView_OpenMultiDiGraph"><path codeLine="40" d="M535.82,646 C587.62,646 633.1,646 682.14,646 " fill="none" id="OpenMultiDiGraphView-backto-OpenMultiDiGraph" style="stroke:#181818;stroke-width:1.0;"/><polygon fill="none" points="517.82,646,535.82,652,535.82,640,517.82,646" style="stroke:#181818;stroke-width:1.0;"/></g><!--reverse link UpwardOpenMultiDiGraphView to UpwardOpenMultiDiGraph--><g id="link_UpwardOpenMultiDiGraphView_UpwardOpenMultiDiGraph"><path codeLine="41" d="M900.442,126.9938 C927.112,130.6638 937.34,132.08 963.31,135.65 " fill="none" id="UpwardOpenMultiDiGraphView-backto-UpwardOpenMultiDiGraph" style="stroke:#181818;stroke-width:1.0;"/><polygon fill="none" points="882.61,124.54,899.624,132.9378,901.2599,121.0498,882.61,124.54" style="stroke:#181818;stroke-width:1.0;"/></g><!--reverse link IDownwardOpenMultiDiGraph to DownwardOpenMultiDiGraph--><g id="link_IDownwardOpenMultiDiGraph_DownwardOpenMultiDiGraph"><path codeLine="42" d="M890.5677,331.638 C914.8077,334.978 928.46,336.85 952.65,340.19 " fill="none" id="IDownwardOpenMultiDiGraph-backto-DownwardOpenMultiDiGraph" style="stroke:#181818;stroke-width:1.0;"/><polygon fill="#181818" points="878.68,330,884.0778,334.7816,890.5677,331.638,885.1698,326.8564,878.68,330" style="stroke:#181818;stroke-width:1.0;"/></g><!--reverse link IUpwardOpenMultiDiGraph to UpwardOpenMultiDiGraph--><g id="link_IUpwardOpenMultiDiGraph_UpwardOpenMultiDiGraph"><path codeLine="43" d="M880.2129,175.1806 C910.9229,171.0506 932.54,168.14 963.16,164.03 " fill="none" id="IUpwardOpenMultiDiGraph-backto-UpwardOpenMultiDiGraph" style="stroke:#181818;stroke-width:1.0;"/><polygon fill="#181818" points="868.32,176.78,874.7996,179.9446,880.2129,175.1806,873.7333,172.016,868.32,176.78" style="stroke:#181818;stroke-width:1.0;"/></g><!--reverse link IOpenMultiDiGraph to OpenMultiDiGraph--><g id="link_IOpenMultiDiGraph_OpenMultiDiGraph"><path codeLine="44" d="M515.012,706.4612 C569.032,693.1612 628.38,678.54 682.08,665.31 " fill="none" id="IOpenMultiDiGraph-backto-OpenMultiDiGraph" style="stroke:#181818;stroke-width:1.0;"/><polygon fill="#181818" points="503.36,709.33,510.1423,711.7796,515.012,706.4612,508.2298,704.0116,503.36,709.33" style="stroke:#181818;stroke-width:1.0;"/></g><!--reverse link IOpenMultiDiGraphView to OpenMultiDiGraphView--><g id="link_IOpenMultiDiGraphView_OpenMultiDiGraphView"><path codeLine="45" d="M138.2335,473.6774 C158.9035,510.2574 197.22,568.74 254.5,605 C276.19,618.73 302.16,627.87 327.08,633.94 " fill="none" id="IOpenMultiDiGraphView-backto-OpenMultiDiGraphView" style="stroke:#181818;stroke-width:1.0;"/><polygon fill="#181818" points="132.33,463.23,131.7992,470.4215,138.2335,473.6774,138.7642,466.4859,132.33,463.23" style="stroke:#181818;stroke-width:1.0;"/></g><!--reverse link IDownwardOpenMultiDiGraphView to DownwardOpenMultiDiGraphView--><g id="link_IDownwardOpenMultiDiGraphView_DownwardOpenMultiDiGraphView"><path codeLine="46" d="M534.4415,341.3208 C578.0315,352.0608 617.44,361.77 661.05,372.51 " fill="none" id="IDownwardOpenMultiDiGraphView-backto-DownwardOpenMultiDiGraphView" style="stroke:#181818;stroke-width:1.0;"/><polygon fill="#181818" points="522.79,338.45,527.6588,343.7692,534.4415,341.3208,529.5727,336.0015,522.79,338.45" style="stroke:#181818;stroke-width:1.0;"/></g><!--reverse link IUpwardOpenMultiDiGraphView to UpwardOpenMultiDiGraphView--><g id="link_IUpwardOpenMultiDiGraphView_UpwardOpenMultiDiGraphView"><path codeLine="47" d="M534.4415,163.6792 C578.0315,152.9392 617.44,143.23 661.05,132.49 " fill="none" id="IUpwardOpenMultiDiGraphView-backto-UpwardOpenMultiDiGraphView" style="stroke:#181818;stroke-width:1.0;"/><polygon fill="#181818" points="522.79,166.55,529.5727,168.9985,534.4415,163.6792,527.6588,161.2308,522.79,166.55" style="stroke:#181818;stroke-width:1.0;"/></g><!--SRC=[dLF12i8m33tRhyXPq2_m8WYoWtWGlTUkpkhOHbSPelwxR6NIRKswUIl9UybxIPhAYm6JWrR9rK2ij1H6vHbZ1HTtdaZO5pA35x2PI7bPmZg-SI4pyQpZkqTgr4PjDI-kRCRFfT5S6B38Q3hYf6JLDXgo_N64StYSatwwVhlKTTal1kpJTRxSv5LMSHqx8sX3c48ixqhnOBgA-wF2cuv5rdM7_ex5prs_a4s56_fnhbki4fKb-Uwi6a-awTLxiS2t5eMv-FG79sm9-2-99Ydit4JqXy0WSOf0QjC4xGy_vC8fOlYBCy85QPEDScYXeHP81tIDC2Sls5-k8M6TlE2Hn-23siMGNudoOEd4s70lTVeB]--></g></svg>