<?xml version="1.0" encoding="us-ascii" standalone="no"?><svg xmlns="http://www.w3.org/2000/svg" xmlns:xlink="http://www.w3.org/1999/xlink" contentStyleType="text/css" height="361px" preserveAspectRatio="none" style="width:890px;height:361px;background:#FFFFFF;" version="1.1" viewBox="0 0 890 361" width="890px" zoomAndPan="magnify"><defs/><g><!--cluster Undirected--><g id="cluster_Undirected"><path d="M8.5,6 L96.5,6 A3.75,3.75 0 0 1 99,8.5 L106,28.2969 L880.5,28.2969 A2.5,2.5 0 0 1 883,30.7969 L883,351.5 A2.5,2.5 0 0 1 880.5,354 L8.5,354 A2.5,2.5 0 0 1 6,351.5 L6,8.5 A2.5,2.5 0 0 1 8.5,6 " fill="none" style="stroke:#000000;stroke-width:1.5;"/><line style="stroke:#000000;stroke-width:1.5;" x1="6" x2="106" y1="28.2969" y2="28.2969"/><text fill="#000000" font-family="sans-serif" font-size="14" font-weight="bold" lengthAdjust="spacing" textLength="87" x="10" y="20.9951">Undirected</text></g><!--class HashmapUndirectedGraph--><g id="elem_HashmapUndirectedGraph"><rect codeLine="4" fill="#F1F1F1" height="48" id="HashmapUndirectedGraph" rx="2.5" ry="2.5" style="stroke:#181818;stroke-width:0.5;" width="215" x="652" y="290"/><ellipse cx="667" cy="306" fill="#ADD1B2" rx="11" ry="11" style="stroke:#181818;stroke-width:1.0;"/><path d="M669.9688,311.6406 Q669.3906,311.9375 668.75,312.0781 Q668.1094,312.2344 667.4063,312.2344 Q664.9063,312.2344 663.5781,310.5938 Q662.2656,308.9375 662.2656,305.8125 Q662.2656,302.6875 663.5781,301.0313 Q664.9063,299.375 667.4063,299.375 Q668.1094,299.375 668.75,299.5313 Q669.4063,299.6875 669.9688,299.9844 L669.9688,302.7031 Q669.3438,302.125 668.75,301.8594 Q668.1563,301.5781 667.5313,301.5781 Q666.1875,301.5781 665.5,302.6563 Q664.8125,303.7188 664.8125,305.8125 Q664.8125,307.9063 665.5,308.9844 Q666.1875,310.0469 667.5313,310.0469 Q668.1563,310.0469 668.75,309.7813 Q669.3438,309.5 669.9688,308.9219 L669.9688,311.6406 Z " fill="#000000"/><text fill="#000000" font-family="sans-serif" font-size="14" lengthAdjust="spacing" textLength="183" x="681" y="310.8467">HashmapUndirectedGraph</text><line style="stroke:#181818;stroke-width:0.5;" x1="653" x2="866" y1="322" y2="322"/><line style="stroke:#181818;stroke-width:0.5;" x1="653" x2="866" y1="330" y2="330"/></g><!--class IUndirectedGraph--><g id="elem_IUndirectedGraph"><rect codeLine="5" fill="#F1F1F1" height="48" id="IUndirectedGraph" rx="2.5" ry="2.5" style="stroke:#181818;stroke-width:0.5;" width="153" x="388" y="290"/><ellipse cx="403" cy="306" fill="#A9DCDF" rx="11" ry="11" style="stroke:#181818;stroke-width:1.0;"/><path d="M403.1094,301.3438 L401.9531,306.4219 L404.2813,306.4219 L403.1094,301.3438 Z M401.625,299.1094 L404.6094,299.1094 L407.9688,311.5 L405.5156,311.5 L404.75,308.4375 L401.4688,308.4375 L400.7188,311.5 L398.2813,311.5 L401.625,299.1094 Z " fill="#000000"/><text fill="#000000" font-family="sans-serif" font-size="14" font-style="italic" lengthAdjust="spacing" textLength="121" x="417" y="310.8467">IUndirectedGraph</text><line style="stroke:#181818;stroke-width:0.5;" x1="389" x2="540" y1="322" y2="322"/><line style="stroke:#181818;stroke-width:0.5;" x1="389" x2="540" y1="330" y2="330"/></g><!--class IUndirectedGraphView--><g id="elem_IUndirectedGraphView"><rect codeLine="6" fill="#F1F1F1" height="48" id="IUndirectedGraphView" rx="2.5" ry="2.5" style="stroke:#181818;stroke-width:0.5;" width="185" x="57" y="186"/><ellipse cx="72" cy="202" fill="#A9DCDF" rx="11" ry="11" style="stroke:#181818;stroke-width:1.0;"/><path d="M72.1094,197.3438 L70.9531,202.4219 L73.2813,202.4219 L72.1094,197.3438 Z M70.625,195.1094 L73.6094,195.1094 L76.9688,207.5 L74.5156,207.5 L73.75,204.4375 L70.4688,204.4375 L69.7188,207.5 L67.2813,207.5 L70.625,195.1094 Z " fill="#000000"/><text fill="#000000" font-family="sans-serif" font-size="14" font-style="italic" lengthAdjust="spacing" textLength="153" x="86" y="206.8467">IUndirectedGraphView</text><line style="stroke:#181818;stroke-width:0.5;" x1="58" x2="241" y1="218" y2="218"/><line style="stroke:#181818;stroke-width:0.5;" x1="58" x2="241" y1="226" y2="226"/></g><!--class JoinedUndirectedGraphView--><g id="elem_JoinedUndirectedGraphView"><rect codeLine="7" fill="#F1F1F1" height="48" id="JoinedUndirectedGraphView" rx="2.5" ry="2.5" style="stroke:#181818;stroke-width:0.5;" width="224" x="352.5" y="207"/><ellipse cx="367.5" cy="223" fill="#ADD1B2" rx="11" ry="11" style="stroke:#181818;stroke-width:1.0;"/><path d="M370.4688,228.6406 Q369.8906,228.9375 369.25,229.0781 Q368.6094,229.2344 367.9063,229.2344 Q365.4063,229.2344 364.0781,227.5938 Q362.7656,225.9375 362.7656,222.8125 Q362.7656,219.6875 364.0781,218.0313 Q365.4063,216.375 367.9063,216.375 Q368.6094,216.375 369.25,216.5313 Q369.9063,216.6875 370.4688,216.9844 L370.4688,219.7031 Q369.8438,219.125 369.25,218.8594 Q368.6563,218.5781 368.0313,218.5781 Q366.6875,218.5781 366,219.6563 Q365.3125,220.7188 365.3125,222.8125 Q365.3125,224.9063 366,225.9844 Q366.6875,227.0469 368.0313,227.0469 Q368.6563,227.0469 369.25,226.7813 Q369.8438,226.5 370.4688,225.9219 L370.4688,228.6406 Z " fill="#000000"/><text fill="#000000" font-family="sans-serif" font-size="14" lengthAdjust="spacing" textLength="192" x="381.5" y="227.8467">JoinedUndirectedGraphView</text><line style="stroke:#181818;stroke-width:0.5;" x1="353.5" x2="575.5" y1="239" y2="239"/><line style="stroke:#181818;stroke-width:0.5;" x1="353.5" x2="575.5" y1="247" y2="247"/></g><!--class UndirectedGraph--><g id="elem_UndirectedGraph"><rect codeLine="8" fill="#F1F1F1" height="48" id="UndirectedGraph" rx="2.5" ry="2.5" style="stroke:#181818;stroke-width:0.5;" width="150" x="684.5" y="166"/><ellipse cx="699.5" cy="182" fill="#ADD1B2" rx="11" ry="11" style="stroke:#181818;stroke-width:1.0;"/><path d="M702.4688,187.6406 Q701.8906,187.9375 701.25,188.0781 Q700.6094,188.2344 699.9063,188.2344 Q697.4063,188.2344 696.0781,186.5938 Q694.7656,184.9375 694.7656,181.8125 Q694.7656,178.6875 696.0781,177.0313 Q697.4063,175.375 699.9063,175.375 Q700.6094,175.375 701.25,175.5313 Q701.9063,175.6875 702.4688,175.9844 L702.4688,178.7031 Q701.8438,178.125 701.25,177.8594 Q700.6563,177.5781 700.0313,177.5781 Q698.6875,177.5781 698,178.6563 Q697.3125,179.7188 697.3125,181.8125 Q697.3125,183.9063 698,184.9844 Q698.6875,186.0469 700.0313,186.0469 Q700.6563,186.0469 701.25,185.7813 Q701.8438,185.5 702.4688,184.9219 L702.4688,187.6406 Z " fill="#000000"/><text fill="#000000" font-family="sans-serif" font-size="14" lengthAdjust="spacing" textLength="118" x="713.5" y="186.8467">UndirectedGraph</text><line style="stroke:#181818;stroke-width:0.5;" x1="685.5" x2="833.5" y1="198" y2="198"/><line style="stroke:#181818;stroke-width:0.5;" x1="685.5" x2="833.5" y1="206" y2="206"/></g><!--class UndirectedGraphView--><g id="elem_UndirectedGraphView"><rect codeLine="9" fill="#F1F1F1" height="48" id="UndirectedGraphView" rx="2.5" ry="2.5" style="stroke:#181818;stroke-width:0.5;" width="182" x="373.5" y="124"/><ellipse cx="388.5" cy="140" fill="#ADD1B2" rx="11" ry="11" style="stroke:#181818;stroke-width:1.0;"/><path d="M391.4688,145.6406 Q390.8906,145.9375 390.25,146.0781 Q389.6094,146.2344 388.9063,146.2344 Q386.4063,146.2344 385.0781,144.5938 Q383.7656,142.9375 383.7656,139.8125 Q383.7656,136.6875 385.0781,135.0313 Q386.4063,133.375 388.9063,133.375 Q389.6094,133.375 390.25,133.5313 Q390.9063,133.6875 391.4688,133.9844 L391.4688,136.7031 Q390.8438,136.125 390.25,135.8594 Q389.6563,135.5781 389.0313,135.5781 Q387.6875,135.5781 387,136.6563 Q386.3125,137.7188 386.3125,139.8125 Q386.3125,141.9063 387,142.9844 Q387.6875,144.0469 389.0313,144.0469 Q389.6563,144.0469 390.25,143.7813 Q390.8438,143.5 391.4688,142.9219 L391.4688,145.6406 Z " fill="#000000"/><text fill="#000000" font-family="sans-serif" font-size="14" lengthAdjust="spacing" textLength="150" x="402.5" y="144.8467">UndirectedGraphView</text><line style="stroke:#181818;stroke-width:0.5;" x1="374.5" x2="554.5" y1="156" y2="156"/><line style="stroke:#181818;stroke-width:0.5;" x1="374.5" x2="554.5" y1="164" y2="164"/></g><!--class ViewDiGraphAsUndirectedGraph--><g id="elem_ViewDiGraphAsUndirectedGraph"><rect codeLine="10" fill="#F1F1F1" height="48" id="ViewDiGraphAsUndirectedGraph" rx="2.5" ry="2.5" style="stroke:#181818;stroke-width:0.5;" width="255" x="337" y="41"/><ellipse cx="352" cy="57" fill="#ADD1B2" rx="11" ry="11" style="stroke:#181818;stroke-width:1.0;"/><path d="M354.9688,62.6406 Q354.3906,62.9375 353.75,63.0781 Q353.1094,63.2344 352.4063,63.2344 Q349.9063,63.2344 348.5781,61.5938 Q347.2656,59.9375 347.2656,56.8125 Q347.2656,53.6875 348.5781,52.0313 Q349.9063,50.375 352.4063,50.375 Q353.1094,50.375 353.75,50.5313 Q354.4063,50.6875 354.9688,50.9844 L354.9688,53.7031 Q354.3438,53.125 353.75,52.8594 Q353.1563,52.5781 352.5313,52.5781 Q351.1875,52.5781 350.5,53.6563 Q349.8125,54.7188 349.8125,56.8125 Q349.8125,58.9063 350.5,59.9844 Q351.1875,61.0469 352.5313,61.0469 Q353.1563,61.0469 353.75,60.7813 Q354.3438,60.5 354.9688,59.9219 L354.9688,62.6406 Z " fill="#000000"/><text fill="#000000" font-family="sans-serif" font-size="14" lengthAdjust="spacing" textLength="223" x="366" y="61.8467">ViewDiGraphAsUndirectedGraph</text><line style="stroke:#181818;stroke-width:0.5;" x1="338" x2="591" y1="73" y2="73"/><line style="stroke:#181818;stroke-width:0.5;" x1="338" x2="591" y1="81" y2="81"/></g><!--class ViewUndirectedGraphAsDiGraph--><g id="elem_ViewUndirectedGraphAsDiGraph"><rect codeLine="11" fill="#F1F1F1" height="48" id="ViewUndirectedGraphAsDiGraph" rx="2.5" ry="2.5" style="stroke:#181818;stroke-width:0.5;" width="255" x="22" y="62"/><ellipse cx="37" cy="78" fill="#ADD1B2" rx="11" ry="11" style="stroke:#181818;stroke-width:1.0;"/><path d="M39.9688,83.6406 Q39.3906,83.9375 38.75,84.0781 Q38.1094,84.2344 37.4063,84.2344 Q34.9063,84.2344 33.5781,82.5938 Q32.2656,80.9375 32.2656,77.8125 Q32.2656,74.6875 33.5781,73.0313 Q34.9063,71.375 37.4063,71.375 Q38.1094,71.375 38.75,71.5313 Q39.4063,71.6875 39.9688,71.9844 L39.9688,74.7031 Q39.3438,74.125 38.75,73.8594 Q38.1563,73.5781 37.5313,73.5781 Q36.1875,73.5781 35.5,74.6563 Q34.8125,75.7188 34.8125,77.8125 Q34.8125,79.9063 35.5,80.9844 Q36.1875,82.0469 37.5313,82.0469 Q38.1563,82.0469 38.75,81.7813 Q39.3438,81.5 39.9688,80.9219 L39.9688,83.6406 Z " fill="#000000"/><text fill="#000000" font-family="sans-serif" font-size="14" lengthAdjust="spacing" textLength="223" x="51" y="82.8467">ViewUndirectedGraphAsDiGraph</text><line style="stroke:#181818;stroke-width:0.5;" x1="23" x2="276" y1="94" y2="94"/><line style="stroke:#181818;stroke-width:0.5;" x1="23" x2="276" y1="102" y2="102"/></g><!--reverse link IUndirectedGraph to HashmapUndirectedGraph--><g id="link_IUndirectedGraph_HashmapUndirectedGraph"><path codeLine="14" d="M559.34,314 C592.91,314 614.99,314 651.53,314 " fill="none" id="IUndirectedGraph-backto-HashmapUndirectedGraph" style="stroke:#181818;stroke-width:1.0;"/><polygon fill="none" points="541.34,314,559.34,320,559.34,308,541.34,314" style="stroke:#181818;stroke-width:1.0;"/></g><!--reverse link IUndirectedGraphView to IUndirectedGraph--><g id="link_IUndirectedGraphView_IUndirectedGraph"><path codeLine="15" d="M239.2151,240.225 C273.8651,251.985 299.04,260.44 337,273 C353.33,278.4 370.87,284.13 387.53,289.54 " fill="none" id="IUndirectedGraphView-backto-IUndirectedGraph" style="stroke:#181818;stroke-width:1.0;"/><polygon fill="none" points="222.17,234.44,237.2867,245.9067,241.1434,234.5433,222.17,234.44" style="stroke:#181818;stroke-width:1.0;"/></g><!--reverse link IUndirectedGraphView to JoinedUndirectedGraphView--><g id="link_IUndirectedGraphView_JoinedUndirectedGraphView"><path codeLine="16" d="M260.2598,217.3622 C294.6198,219.6622 316.07,221.11 352.02,223.52 " fill="none" id="IUndirectedGraphView-backto-JoinedUndirectedGraphView" style="stroke:#181818;stroke-width:1.0;"/><polygon fill="none" points="242.3,216.16,259.8591,223.3488,260.6605,211.3756,242.3,216.16" style="stroke:#181818;stroke-width:1.0;"/></g><!--reverse link IUndirectedGraphView to ViewDiGraphAsUndirectedGraph--><g id="link_IUndirectedGraphView_ViewDiGraphAsUndirectedGraph"><path codeLine="17" d="M204.3558,176.166 C241.2958,153.466 283.81,129.18 337,106 C350.76,100 365.68,94.41 380.3,89.4 " fill="none" id="IUndirectedGraphView-backto-ViewDiGraphAsUndirectedGraph" style="stroke:#181818;stroke-width:1.0;"/><polygon fill="none" points="189.02,185.59,207.4972,181.2779,201.2145,171.054,189.02,185.59" style="stroke:#181818;stroke-width:1.0;"/></g><!--reverse link UndirectedGraphView to UndirectedGraph--><g id="link_UndirectedGraphView_UndirectedGraph"><path codeLine="18" d="M573.6176,163.4959 C614.8176,169.4059 645.18,173.76 684.23,179.35 " fill="none" id="UndirectedGraphView-backto-UndirectedGraph" style="stroke:#181818;stroke-width:1.0;"/><polygon fill="none" points="555.8,160.94,572.7657,169.4351,574.4696,157.5567,555.8,160.94" style="stroke:#181818;stroke-width:1.0;"/></g><!--reverse link IUndirectedGraphView to UndirectedGraphView--><g id="link_IUndirectedGraphView_UndirectedGraphView"><path codeLine="19" d="M254.0709,189.4864 C295.2809,181.3164 332,174.05 373.06,165.92 " fill="none" id="IUndirectedGraphView-backto-UndirectedGraphView" style="stroke:#181818;stroke-width:1.0;"/><polygon fill="#181818" points="242.3,191.82,248.9633,194.5768,254.0709,189.4864,247.4076,186.7296,242.3,191.82" style="stroke:#181818;stroke-width:1.0;"/></g><!--reverse link IUndirectedGraph to UndirectedGraph--><g id="link_IUndirectedGraph_UndirectedGraph"><path codeLine="20" d="M552.8116,287.6576 C569.6316,282.0876 575.86,279.59 592,273 C634.46,255.65 681.04,232.01 714.11,214.4 " fill="none" id="IUndirectedGraph-backto-UndirectedGraph" style="stroke:#181818;stroke-width:1.0;"/><polygon fill="#181818" points="541.42,291.43,548.3733,293.341,552.8116,287.6576,545.8584,285.7466,541.42,291.43" style="stroke:#181818;stroke-width:1.0;"/></g><!--SRC=[bP312i8m38RForFaBEmDl0m4dNUznxPknTcMfh23-kuogoXRE-Qj9D-N_acdpW63HQ-RDg3KNecWhG5m92xKA3oOM5GIRmY5w8WPTyJjbTotj_NaMYZenC6J21Yn-b_Wg5N_-MDljL5o1fWCJvP_ZU6zqQzonHbzO4QjYjyImWDWd1dNzxBCNIIrO1JgvMZ-4dbdTjMijIZJQWecmwJ09m00]--></g></svg>